<?xml version="1.0" encoding="UTF-8"?>
<svg version="1.1" xmlns="http://www.w3.org/2000/svg" width="500" height="500">
<path d="M0 0 C165 0 330 0 500 0 C500 165 500 330 500 500 C335 500 170 500 0 500 C0 335 0 170 0 0 Z " fill="#FEFEFE" transform="translate(0,0)"/>
<path d="M0 0 C0.7734375 0.49242187 1.546875 0.98484375 2.34375 1.4921875 C19.92620402 13.26809035 32.23253464 28.79058409 36.5859375 49.83203125 C38.11015867 61.49376115 37.20169851 72.29730841 33.97265625 83.546875 C33.08389346 86.70216139 32.51001203 89.76699435 32 93 C32.73299316 93.41660889 33.46598633 93.83321777 34.22119141 94.26245117 C47.06158039 101.5659106 59.89365106 108.88248588 72.625 116.375 C73.54748535 116.91535889 74.4699707 117.45571777 75.42041016 118.01245117 C76.68570557 118.7603894 76.68570557 118.7603894 77.9765625 119.5234375 C78.70955566 119.95575684 79.44254883 120.38807617 80.19775391 120.83349609 C82 122 82 122 84 124 C83.66797885 130.08705439 83.66797885 130.08705439 81.75730515 132.69842625 C79.42118048 134.42871114 77.96484218 134.37973172 75.07061768 134.38768005 C74.05323013 134.39758469 73.03584259 134.40748932 71.98762512 134.41769409 C70.87183578 134.41319244 69.75604645 134.4086908 68.60644531 134.40405273 C67.43041245 134.41091599 66.25437958 134.41777924 65.04270935 134.42485046 C61.81253071 134.44003987 58.58271273 134.44160305 55.35251331 134.43590808 C52.64723442 134.43281534 49.94200755 134.4389112 47.23673606 134.44494683 C40.83990901 134.45901081 34.44321537 134.45742165 28.04638672 134.44604492 C21.48052499 134.43462431 14.91507462 134.44853192 8.34926724 134.4754414 C2.69293916 134.49774277 -2.96326125 134.50420178 -8.6196301 134.49836498 C-11.98879273 134.49502073 -15.3574858 134.49898469 -18.72664642 134.51461601 C-45.72992578 134.62214315 -45.72992578 134.62214315 -58 130 C-59.25313492 129.52891312 -59.25313492 129.52891312 -60.53158569 129.04830933 C-62.48138871 128.2706542 -64.32384368 127.40201273 -66.1875 126.4375 C-66.84548584 126.10234375 -67.50347168 125.7671875 -68.18139648 125.421875 C-75.14750181 121.67914512 -80.54895375 116.66005875 -86 111 C-86.67546875 110.34386719 -87.3509375 109.68773437 -88.046875 109.01171875 C-93.60298305 103.27122658 -96.82378932 96.23295502 -100 89 C-100.43828125 88.0615625 -100.8765625 87.123125 -101.328125 86.15625 C-106.64423458 72.52903952 -106.63737918 52.39732168 -101.32421875 38.76953125 C-100.88722656 37.85558594 -100.45023438 36.94164062 -100 36 C-99.49082031 34.91074219 -98.98164063 33.82148438 -98.45703125 32.69921875 C-94.85614669 25.55512969 -90.63268365 18.73627324 -85 13 C-84.34 13 -83.68 13 -83 13 C-83 12.34 -83 11.68 -83 11 C-62.72953086 -9.75774003 -24.91479007 -15.9412428 0 0 Z " fill="#363612" transform="translate(264,171)"/>
<path d="M0 0 C10.28163003 7.83642862 17.39683395 20.51539043 20.125 33.125 C20.42260732 36.90012349 20.44978233 40.65208491 20.4375 44.4375 C20.45361328 45.41912109 20.46972656 46.40074219 20.48632812 47.41210938 C20.49058302 53.84125963 20.05111906 60.27961462 17.125 66.125 C13.32865678 67.39044774 12.12579268 66.76122796 8.5 65.1875 C5.51171875 63.51171875 5.51171875 63.51171875 3.125 61.125 C2.42555461 57.73250283 2.30708234 54.80956925 2.32128906 51.37548828 C2.30501821 44.2797693 0.60400409 38.78404939 -3.875 33.125 C-6.70874666 30.91016229 -9.51194573 29.12759709 -12.6796875 27.4296875 C-13.40414062 26.99914062 -14.12859375 26.56859375 -14.875 26.125 C-14.875 25.465 -14.875 24.805 -14.875 24.125 C-15.55175781 23.8671875 -16.22851562 23.609375 -16.92578125 23.34375 C-20.38052099 21.91609596 -23.7203883 20.29430971 -27.0625 18.625 C-27.69091797 18.31691406 -28.31933594 18.00882813 -28.96679688 17.69140625 C-31.62408764 16.3670239 -33.76105064 15.23894936 -35.875 13.125 C-43.17886531 10.1370551 -53.2876321 9.40200784 -60.75 12.1875 C-67.44180519 16.33641922 -73.93086129 21.15403129 -75.875 29.125 C-76.75262781 37.90127815 -76.95693423 46.51778364 -71.875 54.125 C-71.3903125 54.89457031 -70.905625 55.66414063 -70.40625 56.45703125 C-66.57822377 60.49181815 -61.93599866 62.89665734 -57.125 65.625 C-55.19219306 66.73868956 -53.25989285 67.85325905 -51.328125 68.96875 C-50.39806641 69.50113281 -49.46800781 70.03351563 -48.50976562 70.58203125 C-46.14540919 71.96664324 -43.84480592 73.41510929 -41.546875 74.90625 C-34.35866839 79.42824872 -27.22465349 80.11248829 -18.875 79.125 C-14.09564192 77.42889535 -10.07517162 74.92511441 -5.875 72.125 C-1.97325668 72.47813792 1.42300725 74.72194516 4.8125 76.5625 C5.46605469 76.91449463 6.11960937 77.26648926 6.79296875 77.62915039 C16.14903862 82.71363391 25.27157818 88.2033634 34.39453125 93.69140625 C35.07515625 94.10076416 35.75578125 94.51012207 36.45703125 94.93188477 C37.74071899 95.70523067 39.02334078 96.48034981 40.3046875 97.25756836 C43.19303526 99.0026118 46.07443212 100.67880486 49.125 102.125 C49.125 102.455 49.125 102.785 49.125 103.125 C36.96312373 103.21802272 24.80133326 103.28892814 12.63917255 103.33224869 C6.9906837 103.35304915 1.34243975 103.38122812 -4.3059082 103.42675781 C-9.76539807 103.47048559 -15.2246536 103.4941937 -20.68430519 103.50450897 C-22.7585398 103.51185225 -24.8327628 103.52619087 -26.90689659 103.54792023 C-46.44082599 103.7442706 -62.81118038 100.56656212 -77.875 87.125 C-87.85990139 77.32164227 -94.86089291 62.34258872 -95.16772461 48.37280273 C-95.31153089 29.29982887 -89.91980704 15.7368418 -76.66796875 1.703125 C-54.09486801 -19.13358337 -23.98260793 -16.51846744 0 0 Z " fill="#F3CF3F" transform="translate(266.875,188.875)"/>
<path d="M0 0 C0.875 2.6875 0.875 2.6875 1 5 C1.99 5.495 1.99 5.495 3 6 C2.505 6.721875 2.01 7.44375 1.5 8.1875 C-0.07919285 11.14848659 -0.28178312 12.71253029 0 16 C-0.52207031 15.731875 -1.04414063 15.46375 -1.58203125 15.1875 C-17.9288418 7.15934102 -34.94423776 2.07718133 -52.9375 8.0625 C-68.02511787 13.83697208 -80.11178501 24.1688121 -87 39 C-92.50445935 52.36551535 -93.63165161 68.81180483 -88.2109375 82.3828125 C-87.81132812 83.24648437 -87.41171875 84.11015625 -87 85 C-86.57976562 85.92554688 -86.15953125 86.85109375 -85.7265625 87.8046875 C-84.1367158 91.12891242 -82.59361277 94.22535639 -80.34765625 97.15625 C-79 99 -79 99 -79 101 C-78.443125 101.226875 -77.88625 101.45375 -77.3125 101.6875 C-74.36380964 103.36108101 -72.39706987 105.60293013 -70 108 C-59.85616833 116.60020511 -46.84956259 120.16800239 -33.8034668 120.11352539 C-32.88590103 120.11367142 -31.96833527 120.11381744 -31.02296448 120.1139679 C-27.99835829 120.11327275 -24.97381414 120.10549897 -21.94921875 120.09765625 C-19.84886204 120.09579066 -17.74850489 120.09436742 -15.64814758 120.09336853 C-10.1260355 120.08955449 -4.60394981 120.07973368 0.91815186 120.06866455 C6.55545698 120.05842652 12.19276638 120.05386578 17.83007812 120.04882812 C28.88673033 120.03811043 39.94336297 120.02104735 51 120 C49.89537204 116.68611612 49.33213682 116.25213431 46.5625 114.375 C45.94503906 113.94960938 45.32757813 113.52421875 44.69140625 113.0859375 C42.02876993 111.37643889 39.37038283 110.42169721 36.375 109.4375 C35.55773437 109.16808594 34.74046875 108.89867187 33.8984375 108.62109375 C33.27195312 108.41613281 32.64546875 108.21117187 32 108 C32 107.01 32 106.02 32 105 C31.34 104.34 30.68 103.68 30 103 C33.2481203 99.15037594 33.2481203 99.15037594 36.1875 98.5625 C43.89571104 99.76155505 50.43823647 103.09183605 57.0625 107.0625 C57.87380371 107.54058105 58.68510742 108.01866211 59.52099609 108.51123047 C81.57973082 121.57973082 81.57973082 121.57973082 84 124 C83.53604672 130.26336927 83.53604672 130.26336927 81.7612114 132.7023325 C79.42208652 134.42580893 77.96355343 134.37973525 75.07061768 134.38768005 C74.05323013 134.39758469 73.03584259 134.40748932 71.98762512 134.41769409 C70.87183578 134.41319244 69.75604645 134.4086908 68.60644531 134.40405273 C67.43041245 134.41091599 66.25437958 134.41777924 65.04270935 134.42485046 C61.81253071 134.44003987 58.58271273 134.44160305 55.35251331 134.43590808 C52.64723442 134.43281534 49.94200755 134.4389112 47.23673606 134.44494683 C40.83990901 134.45901081 34.44321537 134.45742165 28.04638672 134.44604492 C21.48052499 134.43462431 14.91507462 134.44853192 8.34926724 134.4754414 C2.69293916 134.49774277 -2.96326125 134.50420178 -8.6196301 134.49836498 C-11.98879273 134.49502073 -15.3574858 134.49898469 -18.72664642 134.51461601 C-45.72992578 134.62214315 -45.72992578 134.62214315 -58 130 C-59.25313492 129.52891312 -59.25313492 129.52891312 -60.53158569 129.04830933 C-62.48138871 128.2706542 -64.32384368 127.40201273 -66.1875 126.4375 C-66.84548584 126.10234375 -67.50347168 125.7671875 -68.18139648 125.421875 C-75.14750181 121.67914512 -80.54895375 116.66005875 -86 111 C-86.67546875 110.34386719 -87.3509375 109.68773437 -88.046875 109.01171875 C-93.60298305 103.27122658 -96.82378932 96.23295502 -100 89 C-100.43828125 88.0615625 -100.8765625 87.123125 -101.328125 86.15625 C-106.64423458 72.52903952 -106.63737918 52.39732168 -101.32421875 38.76953125 C-100.88722656 37.85558594 -100.45023438 36.94164062 -100 36 C-99.49082031 34.91074219 -98.98164063 33.82148438 -98.45703125 32.69921875 C-94.85614669 25.55512969 -90.63268365 18.73627324 -85 13 C-84.34 13 -83.68 13 -83 13 C-83 12.34 -83 11.68 -83 11 C-63.06843204 -9.41069219 -24.41944626 -16.44574952 0 0 Z " fill="#383813" transform="translate(264,171)"/>
<path d="M0 0 C1.640625 1.6953125 1.640625 1.6953125 2.140625 5.1953125 C1.640625 8.6953125 1.640625 8.6953125 0.19140625 10.35546875 C-3.63514988 12.36543621 -7.40677307 12.3600884 -11.671875 12.6328125 C-37.02226448 14.74820669 -59.56498187 25.82496351 -76.9375 44.4609375 C-91.72488597 62.06496841 -100.39986822 81.38582546 -100.70117188 104.50585938 C-100.88914842 109.41510736 -101.59979895 112.18865339 -105.359375 115.6953125 C-108.421875 116.1953125 -108.421875 116.1953125 -111.359375 115.6953125 C-113.01586914 114.40698242 -113.01586914 114.40698242 -114.359375 112.6953125 C-114.69268894 109.70749839 -114.83332553 106.99469862 -114.796875 104.0078125 C-114.79075195 103.1614624 -114.78462891 102.3151123 -114.77832031 101.44311523 C-114.57527719 93.10350926 -112.82087282 85.62491273 -110.359375 77.6953125 C-110.05902344 76.64988281 -109.75867188 75.60445313 -109.44921875 74.52734375 C-101.14964034 47.32915824 -80.9310001 24.89646336 -56.30078125 11.1875 C-51.43203994 8.71756749 -46.46267027 6.62783666 -41.359375 4.6953125 C-40.63621094 4.40914062 -39.91304688 4.12296875 -39.16796875 3.828125 C-29.23632661 0.17207457 -9.83621407 -5.43923096 0 0 Z " fill="#393916" transform="translate(234.359375,124.3046875)"/>
<path d="M0 0 C0.95358398 -0.02215576 1.90716797 -0.04431152 2.88964844 -0.06713867 C9.79820358 -0.04618552 14.9450339 1.60404021 21.1875 4.4375 C22.5780074 4.93190931 23.97309183 5.41390905 25.375 5.875 C29.54806491 7.42183873 32.73606812 9.63321159 36.1875 12.4375 C36.1875 13.0975 36.1875 13.7575 36.1875 14.4375 C36.826875 14.705625 37.46625 14.97375 38.125 15.25 C40.1875 16.4375 40.1875 16.4375 41.1875 19.4375 C42.6725 19.9325 42.6725 19.9325 44.1875 20.4375 C54.78942633 34.92597937 56.71727898 49.95245172 55.1875 67.4375 C54.66637559 70.18014646 53.98173899 72.75614918 53.1875 75.4375 C48.58790524 74.10549066 44.83072128 72.59321109 41.1875 69.4375 C40.40368088 66.00687138 40.29894551 63.16841634 40.33374023 59.68774414 C40.36717313 52.57632167 38.67803434 47.11111743 34.1875 41.4375 C31.35375334 39.22266229 28.55055427 37.44009709 25.3828125 35.7421875 C24.65835938 35.31164062 23.93390625 34.88109375 23.1875 34.4375 C23.1875 33.7775 23.1875 33.1175 23.1875 32.4375 C22.51074219 32.1796875 21.83398438 31.921875 21.13671875 31.65625 C17.68197901 30.22859596 14.3421117 28.60680971 11 26.9375 C10.37158203 26.62941406 9.74316406 26.32132813 9.09570312 26.00390625 C6.43841236 24.6795239 4.30144936 23.55144936 2.1875 21.4375 C-5.11636531 18.4495551 -15.2251321 17.71450784 -22.6875 20.5 C-28.29086614 23.97408701 -32.98161511 28.05770794 -36.8125 33.4375 C-35.9375 28.6875 -35.9375 28.6875 -34.8125 26.4375 C-34.1525 26.4375 -33.4925 26.4375 -32.8125 26.4375 C-32.8125 25.4475 -32.8125 24.4575 -32.8125 23.4375 C-31.1625 23.1075 -29.5125 22.7775 -27.8125 22.4375 C-27.4825 21.4475 -27.1525 20.4575 -26.8125 19.4375 C-24.74609375 18.26953125 -24.74609375 18.26953125 -22.25 17.25 C-21.42371094 16.90582031 -20.59742188 16.56164062 -19.74609375 16.20703125 C-19.10800781 15.95308594 -18.46992188 15.69914063 -17.8125 15.4375 C-17.8125 15.1075 -17.8125 14.7775 -17.8125 14.4375 C-20.7825 13.9425 -20.7825 13.9425 -23.8125 13.4375 C-23.23905063 10.57025314 -22.9510485 9.5760485 -20.8125 7.4375 C-23.88572544 6.52691469 -26.61347361 6.34863816 -29.8125 6.4375 C-26.08521173 1.75214116 -19.87840807 1.48215895 -14.28173828 0.70117188 C-9.52643313 0.19338766 -4.77947799 0.05976275 0 0 Z " fill="#F1CE41" transform="translate(228.8125,180.5625)"/>
<path d="M0 0 C0.5775 0.66 1.155 1.32 1.75 2 C1.15416048 7.36255572 1.15416048 7.36255572 -0.3125 9.67578125 C-3.29906971 11.7170053 -6.4430555 11.35709973 -9.9375 11.375 C-30.81443687 12.08519105 -49.22006439 22.14743221 -63.4375 37.25 C-76.24883086 52.39782358 -82.14281835 69.84281577 -82.7109375 89.46875 C-83.25 92 -83.25 92 -85.1328125 93.8125 C-87.83145496 95.32612972 -89.20502561 95.60899488 -92.25 95 C-94.5625 93 -94.5625 93 -96.25 90 C-97.06451563 76.30407058 -93.43895247 61.14265235 -87.25 49 C-86.80914062 48.08347656 -86.36828125 47.16695312 -85.9140625 46.22265625 C-82.2622329 39.02996426 -77.59478869 33.01633701 -72.25 27 C-71.63511719 26.30132812 -71.02023438 25.60265625 -70.38671875 24.8828125 C-61.26360291 15.15409369 -49.32451357 7.08811216 -36.6875 2.9375 C-35.88683105 2.67437012 -35.08616211 2.41124023 -34.26123047 2.14013672 C-9.42763566 -5.80162194 -9.42763566 -5.80162194 0 0 Z " fill="#353612" transform="translate(235.25,145)"/>
<path d="M0 0 C10.28163003 7.83642862 17.39683395 20.51539043 20.125 33.125 C20.42260732 36.90012349 20.44978233 40.65208491 20.4375 44.4375 C20.45361328 45.41912109 20.46972656 46.40074219 20.48632812 47.41210938 C20.49065944 53.95672856 19.83161173 60.08995549 17.125 66.125 C16.135 66.62 16.135 66.62 15.125 67.125 C15.35896484 65.4853125 15.35896484 65.4853125 15.59765625 63.8125 C17.50649378 48.32403573 17.20356939 34.19787009 10.125 20.125 C9.70734375 19.28582031 9.2896875 18.44664062 8.859375 17.58203125 C6.48565814 13.36472763 3.51759107 10.43066387 -0.25390625 7.4296875 C-1.875 6.125 -1.875 6.125 -3.875 4 C-9.17142872 -0.96540193 -15.50298007 -2.90213049 -22.30078125 -5.04296875 C-24.875 -5.875 -24.875 -5.875 -26.875 -6.875 C-39.56834675 -7.84880087 -52.61065754 -7.47229194 -64.875 -3.875 C-65.205 -3.545 -65.535 -3.215 -65.875 -2.875 C-64.451875 -2.9678125 -64.451875 -2.9678125 -63 -3.0625 C-61.96875 -3.000625 -60.9375 -2.93875 -59.875 -2.875 C-59.215 -1.885 -58.555 -0.895 -57.875 0.125 C-58.865 0.785 -59.855 1.445 -60.875 2.125 C-61.205 3.115 -61.535 4.105 -61.875 5.125 C-60.204375 5.0321875 -60.204375 5.0321875 -58.5 4.9375 C-56.705625 5.0303125 -56.705625 5.0303125 -54.875 5.125 C-54.215 6.115 -53.555 7.105 -52.875 8.125 C-56.875 9.45833333 -60.875 10.79166667 -64.875 12.125 C-65.205 12.785 -65.535 13.445 -65.875 14.125 C-68.4375 14.75 -68.4375 14.75 -70.875 15.125 C-70.875 16.115 -70.875 17.105 -70.875 18.125 C-71.535 18.125 -72.195 18.125 -72.875 18.125 C-75.57297219 26.43950548 -76.50599093 34.40875131 -76.875 43.125 C-77.205 43.125 -77.535 43.125 -77.875 43.125 C-77.875 41.145 -77.875 39.165 -77.875 37.125 C-78.865 37.125 -79.855 37.125 -80.875 37.125 C-79.23611794 48.66186711 -76.16286536 56.83713464 -67.875 65.125 C-68.865 65.125 -69.855 65.125 -70.875 65.125 C-71.205 65.785 -71.535 66.445 -71.875 67.125 C-72.535 67.125 -73.195 67.125 -73.875 67.125 C-74.803125 67.66125 -75.73125 68.1975 -76.6875 68.75 C-79.875 70.125 -79.875 70.125 -82.75 69.3125 C-83.45125 68.920625 -84.1525 68.52875 -84.875 68.125 C-84.545 70.765 -84.215 73.405 -83.875 76.125 C-84.865 76.62 -84.865 76.62 -85.875 77.125 C-94.4529019 60.96856342 -97.94580745 45.6763356 -93.3125 27.5625 C-87.89409231 11.43943321 -75.98465741 -1.35555691 -60.875 -8.875 C-40.13889671 -18.1406259 -17.99825003 -12.39662959 0 0 Z " fill="#F2CF41" transform="translate(266.875,188.875)"/>
<path d="M0 0 C1.6873219 1.01343792 3.36705689 2.0396122 5.0390625 3.078125 C9.11565265 5.51919694 13.36872525 7.58272081 17.6484375 9.640625 C17.6484375 10.300625 17.6484375 10.960625 17.6484375 11.640625 C18.3290625 11.8675 19.0096875 12.094375 19.7109375 12.328125 C27.33586001 15.73500527 31.00605108 19.53405597 34.55859375 27.08203125 C36.53321863 33.52964152 36.10512049 39.97643619 35.6484375 46.640625 C34.3284375 46.640625 33.0084375 46.640625 31.6484375 46.640625 C31.6484375 43.32820196 31.8350377 40.18132289 32.1484375 36.890625 C32.24125 35.90578125 32.3340625 34.9209375 32.4296875 33.90625 C32.501875 33.15859375 32.5740625 32.4109375 32.6484375 31.640625 C31.6584375 31.640625 30.6684375 31.640625 29.6484375 31.640625 C29.8134375 32.176875 29.9784375 32.713125 30.1484375 33.265625 C30.74503962 36.09948509 30.7140743 38.7526056 30.6484375 41.640625 C29.6584375 41.640625 28.6684375 41.640625 27.6484375 41.640625 C26.9884375 42.630625 26.3284375 43.620625 25.6484375 44.640625 C25.6484375 43.980625 25.6484375 43.320625 25.6484375 42.640625 C23.6684375 43.630625 23.6684375 43.630625 21.6484375 44.640625 C21.80892578 43.55394531 21.80892578 43.55394531 21.97265625 42.4453125 C23.00483433 34.59687272 23.00483433 34.59687272 19.6484375 27.640625 C16.042543 24.61818409 16.042543 24.61818409 11.6484375 23.640625 C11.2565625 24.465625 10.8646875 25.290625 10.4609375 26.140625 C9.07720465 28.81266084 7.67432901 31.42483639 6.1484375 34.015625 C5.74625 34.70398438 5.3440625 35.39234375 4.9296875 36.1015625 C4.506875 36.60945313 4.0840625 37.11734375 3.6484375 37.640625 C2.6584375 37.640625 1.6684375 37.640625 0.6484375 37.640625 C1.20333981 33.7077549 2.32951955 31.28336015 4.6484375 28.078125 C6.68015194 25.26009801 8.02473052 23.07880975 8.6484375 19.640625 C6.9984375 19.640625 5.3484375 19.640625 3.6484375 19.640625 C1.0084375 24.260625 -1.6315625 28.880625 -4.3515625 33.640625 C-5.3415625 33.640625 -6.3315625 33.640625 -7.3515625 33.640625 C-6.64060067 28.54539855 -4.34574418 25.25174 -1.53125 21.04296875 C-0.15993895 18.7492995 -0.15993895 18.7492995 -0.484375 16.39453125 C-0.77054688 15.81574219 -1.05671875 15.23695313 -1.3515625 14.640625 C-2.3415625 14.310625 -3.3315625 13.980625 -4.3515625 13.640625 C-4.691875 15.125625 -4.691875 15.125625 -5.0390625 16.640625 C-6.29418553 21.02459044 -8.33494679 25.19434296 -11.3515625 28.640625 C-12.3415625 28.640625 -13.3315625 28.640625 -14.3515625 28.640625 C-13.83905679 24.23307589 -12.8091851 21.32705889 -10.3515625 17.640625 C-10.0215625 16.980625 -9.6915625 16.320625 -9.3515625 15.640625 C-8.6915625 15.640625 -8.0315625 15.640625 -7.3515625 15.640625 C-7.0215625 13.990625 -6.6915625 12.340625 -6.3515625 10.640625 C-9.73058806 9.61717014 -12.83016263 9.5068215 -16.3515625 9.515625 C-17.3828125 9.51304687 -18.4140625 9.51046875 -19.4765625 9.5078125 C-21.94813259 9.62198829 -23.9958583 9.92711844 -26.3515625 10.640625 C-26.3515625 11.300625 -26.3515625 11.960625 -26.3515625 12.640625 C-27.3515625 13.640625 -28.3515625 14.640625 -29.3515625 15.640625 C-30.79226283 19.96272598 -30.78485435 24.11994673 -30.3515625 28.640625 C-29.0006337 31.5660894 -29.0006337 31.5660894 -27.3515625 33.640625 C-27.3515625 34.300625 -27.3515625 34.960625 -27.3515625 35.640625 C-26.2378125 35.82625 -26.2378125 35.82625 -25.1015625 36.015625 C-22.55014765 36.59549201 -20.6248052 37.37771239 -18.3515625 38.640625 C-18.3515625 39.300625 -18.3515625 39.960625 -18.3515625 40.640625 C-17.6503125 40.90875 -16.9490625 41.176875 -16.2265625 41.453125 C-10.68278803 43.74294489 -5.53031072 46.63695104 -0.3515625 49.640625 C-1.9140625 50.390625 -1.9140625 50.390625 -4.3515625 50.640625 C-6.80884398 49.48586689 -9.02909393 48.05991135 -11.3515625 46.640625 C-12.0115625 46.640625 -12.6715625 46.640625 -13.3515625 46.640625 C-13.6815625 47.300625 -14.0115625 47.960625 -14.3515625 48.640625 C-15.6715625 47.980625 -16.9915625 47.320625 -18.3515625 46.640625 C-18.3515625 45.980625 -18.3515625 45.320625 -18.3515625 44.640625 C-17.6915625 44.640625 -17.0315625 44.640625 -16.3515625 44.640625 C-17.98568693 42.93222219 -19.22062344 41.70609453 -21.3515625 40.640625 C-21.3515625 39.980625 -21.3515625 39.320625 -21.3515625 38.640625 C-22.78659805 38.27660131 -24.22472756 37.92475909 -25.6640625 37.578125 C-26.46457031 37.38089844 -27.26507813 37.18367188 -28.08984375 36.98046875 C-30.51113429 36.44176946 -30.51113429 36.44176946 -33.3515625 37.640625 C-33.6815625 39.620625 -34.0115625 41.600625 -34.3515625 43.640625 C-36.1015625 43.515625 -36.1015625 43.515625 -38.3515625 42.640625 C-45.04356837 34.17720582 -45.31620328 24.93354738 -44.3515625 14.640625 C-42.22837626 7.35376738 -36.49960011 1.85036504 -30.3515625 -2.359375 C-20.28763275 -6.5997175 -9.25677725 -5.35109382 0 0 Z " fill="#37360F" transform="translate(234.3515625,203.359375)"/>
<path d="M0 0 C1.546875 -0.00773438 1.546875 -0.00773438 3.125 -0.015625 C5.94597278 0.24500835 7.60145718 0.79703656 10 2.25 C9.67 3.9 9.34 5.55 9 7.25 C8.34 7.25 7.68 7.25 7 7.25 C6.731875 8.095625 6.46375 8.94125 6.1875 9.8125 C4.9521405 13.38854067 3.523012 16.78860908 2 20.25 C2.99 20.25 3.98 20.25 5 20.25 C5.41378906 19.17685547 5.41378906 19.17685547 5.8359375 18.08203125 C6.98248522 15.29261145 8.26227115 12.62709642 9.625 9.9375 C10.07101563 9.05449219 10.51703125 8.17148438 10.9765625 7.26171875 C11.31429687 6.59785156 11.65203125 5.93398437 12 5.25 C13.32 5.58 14.64 5.91 16 6.25 C16.7109375 7.87109375 16.7109375 7.87109375 17 10.25 C15.6015625 13.16015625 15.6015625 13.16015625 13.625 16.3125 C10.93848969 20.60507858 10.93848969 20.60507858 9 25.25 C13.20059624 23.84980125 14.19051525 20.88174123 16.1875 17.1875 C16.55552734 16.52427734 16.92355469 15.86105469 17.30273438 15.17773438 C18.21012062 13.53972543 19.10615573 11.89543779 20 10.25 C22.475 10.745 22.475 10.745 25 11.25 C24.44509769 15.1828701 23.31891795 17.60726485 21 20.8125 C18.96828556 23.63052699 17.62370698 25.81181525 17 29.25 C20.92670244 27.94109919 21.20657141 26.49192476 23.0625 22.875 C24.61537494 19.87988752 26.12656711 17.06014934 28 14.25 C32.42130011 15.27820933 35.24163788 16.72818457 38.01953125 20.4140625 C40.59543722 25.23747208 40.37541039 29.84221103 39 35 C36.03176352 39.82338427 32.34825587 42.46724804 27 44.25 C20.44537008 45.05495455 17.14356137 43.55586435 11.67578125 39.984375 C8.81164415 38.12791241 5.87881331 36.49451424 2.875 34.875 C1.94429687 34.37226563 1.01359375 33.86953125 0.0546875 33.3515625 C-0.62335938 32.98804688 -1.30140625 32.62453125 -2 32.25 C-2 31.59 -2 30.93 -2 30.25 C-2.60328125 30.11464844 -3.2065625 29.97929687 -3.828125 29.83984375 C-8.2824106 28.64006037 -10.53243724 27.80879452 -13.5625 24.1875 C-15.63492511 19.70041445 -15.69060102 15.08420717 -15 10.25 C-13.5 6.625 -13.5 6.625 -12 4.25 C-11.34 4.25 -10.68 4.25 -10 4.25 C-10 3.59 -10 2.93 -10 2.25 C-6.6042877 0.19298197 -3.9382341 -0.01969117 0 0 Z " fill="#F46520" transform="translate(218,211.75)"/>
<path d="M0 0 C2.65625 0.34375 2.65625 0.34375 4.5 2.25 C5.0465625 3.1059375 5.593125 3.961875 6.15625 4.84375 C7.03990234 6.20113281 7.03990234 6.20113281 7.94140625 7.5859375 C8.79025391 8.95105469 8.79025391 8.95105469 9.65625 10.34375 C10.17058594 11.15070313 10.68492187 11.95765625 11.21484375 12.7890625 C12.37930906 14.62977538 13.52046971 16.48520043 14.65625 18.34375 C18.12194057 15.18958218 20.4808392 11.65945535 22.84375 7.65625 C26.56672297 1.43327703 26.56672297 1.43327703 27.65625 0.34375 C30.15625 0.21875 30.15625 0.21875 32.65625 0.34375 C33.65625 1.34375 33.65625 1.34375 33.76977539 4.85375977 C33.76961626 6.41423422 33.76392142 7.97471393 33.75390625 9.53515625 C33.7524913 10.35499496 33.75107635 11.17483368 33.74961853 12.01951599 C33.74400289 14.64846382 33.73144779 17.27732773 33.71875 19.90625 C33.71373701 21.68424357 33.70917376 23.46223846 33.70507812 25.24023438 C33.69402839 29.60810545 33.67675331 33.97591348 33.65625 38.34375 C32.00010343 38.72593767 30.33167976 39.05770102 28.65625 39.34375 C26.94181781 37.62931781 27.42572033 35.33929759 27.33984375 32.99609375 C27.29794922 31.91650391 27.25605469 30.83691406 27.21289062 29.72460938 C27.17357422 28.58830078 27.13425781 27.45199219 27.09375 26.28125 C27.05056641 25.14107422 27.00738281 24.00089844 26.96289062 22.82617188 C26.85642161 19.99882805 26.75440793 17.17139262 26.65625 14.34375 C25.76873047 15.8596875 25.76873047 15.8596875 24.86328125 17.40625 C24.06605534 18.71932797 23.26782569 20.03179689 22.46875 21.34375 C22.08138672 22.01148438 21.69402344 22.67921875 21.29492188 23.3671875 C18.3609592 28.11972207 18.3609592 28.11972207 15.125 29.1484375 C11.41984347 27.94074407 10.37790292 25.72492699 8.34375 22.46875 C7.29767578 20.83292969 7.29767578 20.83292969 6.23046875 19.1640625 C4.65625 16.34375 4.65625 16.34375 4.65625 14.34375 C3.99625 14.34375 3.33625 14.34375 2.65625 14.34375 C2.65625 22.26375 2.65625 30.18375 2.65625 38.34375 C0.18125 38.83875 0.18125 38.83875 -2.34375 39.34375 C-4.15940436 37.52809564 -3.47236899 35.03105038 -3.48269653 32.61486816 C-3.4806723 31.81383667 -3.47864807 31.01280518 -3.4765625 30.1875 C-3.47751923 29.37003296 -3.47847595 28.55256592 -3.47946167 27.71032715 C-3.48014345 25.97859622 -3.47828929 24.24686276 -3.47412109 22.51513672 C-3.46877279 19.85508518 -3.47406612 17.1952025 -3.48046875 14.53515625 C-3.47980797 12.85677046 -3.4785268 11.17838477 -3.4765625 9.5 C-3.47858673 8.69896851 -3.48061096 7.89793701 -3.48269653 7.07263184 C-3.45463154 0.50667929 -3.45463154 0.50667929 0 0 Z " fill="#3C3D1D" transform="translate(270.34375,316.65625)"/>
<path d="M0 0 C8.50431685 0.75593928 15.13508543 6.32999009 22 11 C21.34 11.33 20.68 11.66 20 12 C18.0546875 11.22265625 18.0546875 11.22265625 15.875 10.0625 C15.15054688 9.68222656 14.42609375 9.30195313 13.6796875 8.91015625 C13.12539062 8.60980469 12.57109375 8.30945313 12 8 C13.76604905 11.11626617 13.76604905 11.11626617 16.625 12.5625 C17.40875 13.036875 18.1925 13.51125 19 14 C19 14.66 19 15.32 19 16 C17.68 16 16.36 16 15 16 C15 15.34 15 14.68 15 14 C14.38125 14.495 13.7625 14.99 13.125 15.5 C11 17 11 17 9 17 C9.33 17.99 9.66 18.98 10 20 C10.66 20.33 11.32 20.66 12 21 C11.40072174 24.35595828 10.15377564 26.37801226 8 29 C9.32 29.33 10.64 29.66 12 30 C12 30.66 12 31.32 12 32 C2.58770799 31.26963441 -4.2582655 25.16395307 -10.625 18.5 C-13.54028809 14.81074162 -14.71548309 10.66435303 -15 6 C-14.53515625 3.73046875 -14.53515625 3.73046875 -14 2 C-12.02 2.66 -10.04 3.32 -8 4 C-7.4225 3.34 -6.845 2.68 -6.25 2 C-4 0 -4 0 0 0 Z " fill="#F2CF44" transform="translate(196,254)"/>
<path d="M0 0 C1.99071715 1.23937064 3.92863455 2.52068651 5.83984375 3.87890625 C5.50984375 5.52890625 5.17984375 7.17890625 4.83984375 8.87890625 C1.4652166 8.33166942 -0.24250625 7.82400625 -3.16015625 5.87890625 C-6.79955557 6.19621149 -6.79955557 6.19621149 -10.16015625 6.87890625 C-10.11638695 9.30979015 -10.11638695 9.30979015 -9.16015625 11.87890625 C-6.54918096 13.47308134 -6.54918096 13.47308134 -3.34765625 14.50390625 C3.82023039 17.1056483 3.82023039 17.1056483 6.83984375 19.87890625 C8.09162845 23.63426036 8.61358351 26.99601039 7.83984375 30.87890625 C5.77369204 34.20382115 3.37093583 37.11336021 -0.16015625 38.87890625 C-10.16581248 39.92740316 -10.16581248 39.92740316 -14.28515625 37.76171875 C-15.91015625 36.37890625 -15.91015625 36.37890625 -18.16015625 33.87890625 C-17.83015625 32.22890625 -17.50015625 30.57890625 -17.16015625 28.87890625 C-13.7855291 29.42614308 -12.07780625 29.93380625 -9.16015625 31.87890625 C-6.35425389 32.30673691 -4.03682475 32.10721327 -1.16015625 31.87890625 C0.99178745 28.6509907 1.04070818 27.59489816 0.83984375 23.87890625 C-3.06151999 21.89400189 -6.8900233 19.95787327 -10.97265625 18.37890625 C-14.26288158 16.83056492 -15.6203626 16.13964575 -17.16015625 12.87890625 C-17.68336528 8.7679782 -17.61941404 6.6443359 -15.47265625 3.06640625 C-11.08601487 -1.08311938 -5.64526892 -2.92982311 0 0 Z " fill="#3B3A1A" transform="translate(334.16015625,317.12109375)"/>
<path d="M0 0 C0.79164551 0.00563965 1.58329102 0.0112793 2.39892578 0.01708984 C18.73532094 0.35251898 34.55253361 7.42354727 46.0859375 19.109375 C55.1213114 30.2960284 59.67112162 43.41031738 59.625 57.625 C59.64111328 58.60662109 59.65722656 59.58824219 59.67382812 60.59960938 C59.67815944 67.14422856 59.01911173 73.27745549 56.3125 79.3125 C55.3225 79.8075 55.3225 79.8075 54.3125 80.3125 C54.54646484 78.6728125 54.54646484 78.6728125 54.78515625 77 C56.69399378 61.51153573 56.39106939 47.38537009 49.3125 33.3125 C48.89484375 32.47332031 48.4771875 31.63414062 48.046875 30.76953125 C45.70612397 26.61079692 42.80073789 23.67277918 39.05859375 20.734375 C37.3125 19.3125 37.3125 19.3125 35.38671875 17.328125 C23.64715241 5.92018483 8.75792906 4.10970558 -6.75 4.25 C-8.19149414 4.25676758 -8.19149414 4.25676758 -9.66210938 4.26367188 C-12.00397422 4.27532294 -14.34570181 4.29167975 -16.6875 4.3125 C-15.6875 2.3125 -15.6875 2.3125 -12.66796875 1.20703125 C-8.44109769 0.10966014 -4.34954737 -0.03257739 0 0 Z " fill="#F3F0DA" transform="translate(227.6875,175.6875)"/>
<path d="M0 0 C8.91 0 17.82 0 27 0 C27.33 1.32 27.66 2.64 28 4 C27.34 4.66 26.68 5.32 26 6 C23.03 6 20.06 6 17 6 C17 16.56 17 27.12 17 38 C14.525 38.495 14.525 38.495 12 39 C11 38 11 38 10.88647461 34.94897461 C10.88663366 33.60008729 10.89232388 32.25119386 10.90234375 30.90234375 C10.9037587 30.19348526 10.90517365 29.48462677 10.90663147 28.75428772 C10.91224557 26.48198288 10.92480037 24.20977525 10.9375 21.9375 C10.94251319 20.40039204 10.94707641 18.86328255 10.95117188 17.32617188 C10.96221958 13.55074358 10.97949359 9.77538829 11 6 C10.28972656 6.01160156 9.57945312 6.02320313 8.84765625 6.03515625 C7.92855469 6.04417969 7.00945312 6.05320312 6.0625 6.0625 C5.14597656 6.07410156 4.22945312 6.08570313 3.28515625 6.09765625 C1 6 1 6 0 5 C0 3.35 0 1.7 0 0 Z " fill="#343516" transform="translate(227,317)"/>
<path d="M0 0 C0.99 0 1.98 0 3 0 C3.2475 1.134375 3.495 2.26875 3.75 3.4375 C6.08343386 12.70550492 9.56861261 20.07408294 17.921875 25.15625 C19.85880991 26.28083652 21.80174772 27.39513588 23.75 28.5 C25.68280694 29.61368956 27.61510715 30.72825905 29.546875 31.84375 C30.47693359 32.37613281 31.40699219 32.90851563 32.36523438 33.45703125 C34.72959081 34.84164324 37.03019408 36.29010929 39.328125 37.78125 C44.98063736 41.32755771 50.26187541 42.31741281 56.875 42.625 C57.90753906 42.68300781 57.90753906 42.68300781 58.9609375 42.7421875 C60.64023246 42.83548166 62.32007767 42.91878238 64 43 C64 43.66 64 44.32 64 45 C60.36485259 46.1303319 56.91661659 46.16711496 53.125 46.1875 C51.93132812 46.20167969 50.73765625 46.21585937 49.5078125 46.23046875 C44.29136336 45.88773991 40.12903387 44.25764572 35.625 41.6875 C34.85414063 41.24792969 34.08328125 40.80835938 33.2890625 40.35546875 C30.50104585 38.70454421 27.76154877 36.98654505 25.03125 35.2421875 C22.89794654 33.93759038 20.71461793 32.78539912 18.5 31.625 C10.69086702 27.2955843 5.27108728 22.38431319 2 14 C1.5875 13.01 1.175 12.02 0.75 11 C-0.20031825 7.19872699 -0.13490421 3.91222214 0 0 Z " fill="#F7F5E2" transform="translate(186,226)"/>
<path d="M0 0 C0.66 0 1.32 0 2 0 C6.16068772 6.92874855 6.16068772 6.92874855 5.625 10.5 C-0.81481481 20.40740741 -0.81481481 20.40740741 -4 22 C-4.33 22.99 -4.66 23.98 -5 25 C-5.66 25 -6.32 25 -7 25 C-7.0825 25.78375 -7.165 26.5675 -7.25 27.375 C-8 30 -8 30 -9.75 31.4375 C-12.74979661 32.18744915 -14.2889255 31.35553725 -17 30 C-15.69018405 21.5797546 -15.69018405 21.5797546 -13.4375 19.6875 C-11.6811732 18.00452558 -11.6811732 18.00452558 -12.0625 15.125 C-11.98073899 11.03694946 -10.82298422 9.89727328 -8 7 C-6.04189722 5.27167459 -4.0367083 3.63822189 -2 2 C-1.34 1.34 -0.68 0.68 0 0 Z " fill="#33330F" transform="translate(165,173)"/>
<path d="M0 0 C0.66 0.33 1.32 0.66 2 1 C3.87862875 0.91255632 5.75455181 0.75824458 7.625 0.5625 C9.12933594 0.40974609 9.12933594 0.40974609 10.6640625 0.25390625 C11.43492187 0.17011719 12.20578125 0.08632812 13 0 C12.67 0.99 12.34 1.98 12 3 C11.01 3.33 10.02 3.66 9 4 C10.98 4 12.96 4 15 4 C14.65226572 10.63093294 14.03910346 16.053928 11 22 C11.99 22 12.98 22 14 22 C14.33 20.68 14.66 19.36 15 18 C15.99 18 16.98 18 18 18 C18.33 18.66 18.66 19.32 19 20 C19.66 19.67 20.32 19.34 21 19 C20.67 20.32 20.34 21.64 20 23 C17.69 23 15.38 23 13 23 C12.67 23.66 12.34 24.32 12 25 C11.01 24.34 10.02 23.68 9 23 C7.865625 22.938125 6.73125 22.87625 5.5625 22.8125 C2 22 2 22 -0.4375 19.0625 C-3.07476983 13.572904 -2.82420791 7.57564973 -1 1.875 C-0.67 1.25625 -0.34 0.6375 0 0 Z " fill="#FA661D" transform="translate(205,217)"/>
<path d="M0 0 C5.08279817 1.19595251 7.9872955 2.52955286 12 6 C15.18329211 7.95789579 17.53892115 8.22265997 21.25 8.125 C22.58804688 8.09792969 22.58804688 8.09792969 23.953125 8.0703125 C24.62859375 8.04710937 25.3040625 8.02390625 26 8 C26.495 8.99 26.495 8.99 27 10 C14.80355314 10.0696988 2.60715414 10.12291201 -9.58945179 10.15543652 C-15.25363544 10.17105146 -20.91768221 10.19221329 -26.58178711 10.22631836 C-32.05422487 10.25906085 -37.52653147 10.27688435 -42.99905968 10.28463173 C-45.080513 10.29014859 -47.16195965 10.3009213 -49.2433567 10.31719017 C-70.19040448 10.4743165 -70.19040448 10.4743165 -79 7 C-75.09268521 5.89389492 -71.63017859 6.1345655 -67.625 6.45703125 C-55.41152778 7.27809093 -43.20232478 6.98238145 -30.97167969 6.75805664 C-27.62059608 6.69852485 -24.26973886 6.64999671 -20.91842651 6.60722637 C-17.69546364 6.56357273 -14.47276098 6.50563118 -11.25 6.44921875 C-10.04811035 6.43453049 -8.8462207 6.41984222 -7.60791016 6.40470886 C-5.953479 6.37006279 -5.953479 6.37006279 -4.265625 6.3347168 C-2.80817871 6.31020699 -2.80817871 6.31020699 -1.32128906 6.28520203 C1.19226265 6.2181374 1.19226265 6.2181374 3 4 C1.68 3.34 0.36 2.68 -1 2 C-0.67 1.34 -0.34 0.68 0 0 Z " fill="#CFB743" transform="translate(289,282)"/>
<path d="M0 0 C0.33 0.66 0.66 1.32 1 2 C1.99 2.33 2.98 2.66 4 3 C5.72348607 7.51484537 5.26380689 12.67531374 5.3125 17.4375 C5.34150391 18.37916016 5.37050781 19.32082031 5.40039062 20.29101562 C5.44059545 24.67334129 5.41951394 27.28198576 3.171875 31.12890625 C1 33 1 33 -2.0625 33.5 C-5.29747032 32.94936675 -6.07712761 32.56382986 -8 30 C-8.109375 27.984375 -8.109375 27.984375 -7.75 25.75 C-7.57404297 24.55697266 -7.57404297 24.55697266 -7.39453125 23.33984375 C-7.26433594 22.56769531 -7.13414063 21.79554688 -7 21 C-6.46644508 17.50225105 -5.99444867 14.288669 -6.0625 10.75 C-5.95940114 6.21365026 -2.76322045 3.40797189 0 0 Z " fill="#333410" transform="translate(128,207)"/>
<path d="M0 0 C1.10961564 3.51191483 1.03443358 6.63334228 0.87890625 10.296875 C0.83056641 11.50214844 0.78222656 12.70742187 0.73242188 13.94921875 C0.67634766 15.20347656 0.62027344 16.45773438 0.5625 17.75 C0.51029297 19.01972656 0.45808594 20.28945312 0.40429688 21.59765625 C0.27468016 24.73202407 0.13971529 27.86606874 0 31 C-3 30 -3 30 -5 28 C-5.66 32.62 -6.32 37.24 -7 42 C-10.50887166 36.73669251 -13.59505792 30.21177113 -12.9375 23.75 C-11.97927958 19.91711834 -10.63283295 16.5922325 -9 13 C-8.25435009 10.68121064 -7.62493206 8.35551314 -7 6 C-6.01 6.33 -5.02 6.66 -4 7 C-3.71125 6.21625 -3.4225 5.4325 -3.125 4.625 C-2 2 -2 2 0 0 Z " fill="#F4CF3D" transform="translate(185,209)"/>
<path d="M0 0 C3.92962596 0.70830295 7.21816003 2.5535867 10.6875 4.4375 C11.34105469 4.78949463 11.99460937 5.14148926 12.66796875 5.50415039 C19.83887699 9.40112479 26.86217537 13.54409799 33.8671875 17.72998047 C36.03092333 19.01841382 38.20208785 20.29351976 40.375 21.56640625 C41.75014761 22.37735391 43.12515362 23.18854175 44.5 24 C45.46196289 24.56062134 45.46196289 24.56062134 46.44335938 25.13256836 C50.88626443 27.77252886 50.88626443 27.77252886 52 30 C45.50567543 30.70847177 42.57485739 29.47776665 37.36328125 25.65234375 C34.92752767 23.94932926 32.48830812 22.66275773 29.8125 21.375 C25.97204074 19.52303201 22.52715292 17.40487699 19 15 C18.071875 14.54625 17.14375 14.0925 16.1875 13.625 C12.62846488 11.81058994 9.4257696 9.67108848 6.125 7.4296875 C3.79916078 5.86487655 1.42406305 4.40752048 -1 3 C-0.67 2.01 -0.34 1.02 0 0 Z " fill="#F7F3DF" transform="translate(261,261)"/>
<path d="M0 0 C0.66 0.33 1.32 0.66 2 1 C1.01 2.485 1.01 2.485 0 4 C1.32 4.99 2.64 5.98 4 7 C3.31292969 7.47050781 2.62585938 7.94101563 1.91796875 8.42578125 C0.56638672 9.35970703 0.56638672 9.35970703 -0.8125 10.3125 C-1.70582031 10.92738281 -2.59914062 11.54226562 -3.51953125 12.17578125 C-5.96608273 13.87331942 -5.96608273 13.87331942 -7.69921875 15.73046875 C-9 17 -9 17 -11 17 C-11 17.66 -11 18.32 -11 19 C-12.62339805 20.70884005 -14.29319053 22.37446717 -16 24 C-16.66 24.66 -17.32 25.32 -18 26 C-18.99 26 -19.98 26 -21 26 C-21 25.34 -21 24.68 -21 24 C-22.98 24.99 -22.98 24.99 -25 26 C-25.33 25.34 -25.66 24.68 -26 24 C-19.1177512 14.27559385 -10.61266168 5.59576707 0 0 Z " fill="#F2F2EC" transform="translate(192,165)"/>
<path d="M0 0 C0.99 0.33 1.98 0.66 3 1 C2.67 1.66 2.34 2.32 2 3 C2.66 3 3.32 3 4 3 C4.33 2.34 4.66 1.68 5 1 C5 1.66 5 2.32 5 3 C5.99 3.33 6.98 3.66 8 4 C6.63600763 8.46397502 4.90097811 10.45588384 1 13 C-1.59577312 14.27760708 -4.13867195 15.50914456 -7 16 C-7.99 15.34 -8.98 14.68 -10 14 C-10 13.34 -10 12.68 -10 12 C-11.98 12.99 -11.98 12.99 -14 14 C-14.33 13.01 -14.66 12.02 -15 11 C-15.33 10.34 -15.66 9.68 -16 9 C-15.195625 8.7525 -14.39125 8.505 -13.5625 8.25 C-12.2940625 7.63125 -12.2940625 7.63125 -11 7 C-10.30464127 4.96971804 -10.30464127 4.96971804 -10 3 C-9.04287109 2.80083984 -9.04287109 2.80083984 -8.06640625 2.59765625 C-7.24011719 2.42105469 -6.41382813 2.24445313 -5.5625 2.0625 C-4.32693359 1.80146484 -4.32693359 1.80146484 -3.06640625 1.53515625 C-1.02338796 1.19247006 -1.02338796 1.19247006 0 0 Z " fill="#343510" transform="translate(191,131)"/>
<path d="M0 0 C1.546875 -0.00773438 1.546875 -0.00773438 3.125 -0.015625 C5.94597278 0.24500835 7.60145718 0.79703656 10 2.25 C9.67 3.9 9.34 5.55 9 7.25 C8.34 7.25 7.68 7.25 7 7.25 C6.731875 8.095625 6.46375 8.94125 6.1875 9.8125 C4.9521405 13.38854067 3.523012 16.78860908 2 20.25 C2.66 20.58 3.32 20.91 4 21.25 C3.34 21.25 2.68 21.25 2 21.25 C1.67 23.23 1.34 25.21 1 27.25 C0.01 27.25 -0.98 27.25 -2 27.25 C-1.3003992 23.51879575 -0.39562812 19.87622043 0.59765625 16.21484375 C1.13373911 13.93115486 1.13373911 13.93115486 1 10.25 C-0.98 10.25 -2.96 10.25 -5 10.25 C-4 8.25 -4 8.25 -1 7.25 C-0.67 6.59 -0.34 5.93 0 5.25 C-3.96 5.91 -7.92 6.57 -12 7.25 C-12 6.26 -12 5.27 -12 4.25 C-11.34 4.25 -10.68 4.25 -10 4.25 C-10 3.59 -10 2.93 -10 2.25 C-6.6042877 0.19298197 -3.9382341 -0.01969117 0 0 Z " fill="#EC6D30" transform="translate(218,211.75)"/>
<path d="M0 0 C2.3125 0.4375 2.3125 0.4375 3.3125 1.4375 C3.40108646 4.17644085 3.42773479 6.8900327 3.41015625 9.62890625 C3.4087413 10.44874496 3.40732635 11.26858368 3.40586853 12.11326599 C3.40025289 14.74221382 3.38769779 17.37107773 3.375 20 C3.36998701 21.77799357 3.36542376 23.55598846 3.36132812 25.33398438 C3.35027839 29.70185545 3.33300331 34.06966348 3.3125 38.4375 C1.65635343 38.81968767 -0.01207024 39.15145102 -1.6875 39.4375 C-2.6875 38.4375 -2.6875 38.4375 -2.80102539 36.12084961 C-2.79317017 34.62050171 -2.79317017 34.62050171 -2.78515625 33.08984375 C-2.78032227 31.47045898 -2.78032227 31.47045898 -2.77539062 29.81835938 C-2.76701172 28.68205078 -2.75863281 27.54574219 -2.75 26.375 C-2.74548828 25.23482422 -2.74097656 24.09464844 -2.73632812 22.91992188 C-2.72449747 20.09239649 -2.7080141 17.2649736 -2.6875 14.4375 C-1.3675 14.4375 -0.0475 14.4375 1.3125 14.4375 C1.6425 10.8075 1.9725 7.1775 2.3125 3.4375 C0.6625 3.4375 -0.9875 3.4375 -2.6875 3.4375 C-2.6875 4.0975 -2.6875 4.7575 -2.6875 5.4375 C-4.0075 5.7675 -5.3275 6.0975 -6.6875 6.4375 C-3.3755 0.5495 -3.3755 0.5495 0 0 Z " fill="#3D3E1F" transform="translate(300.6875,316.5625)"/>
<path d="M0 0 C8.91 0 17.82 0 27 0 C27.33 1.32 27.66 2.64 28 4 C25.44662276 6.55337724 24.04725582 6.43261395 20.5 6.75 C19.5203125 6.84796875 18.540625 6.9459375 17.53125 7.046875 C15 7 15 7 13 5 C13.66 5 14.32 5 15 5 C15 4.34 15 3.68 15 3 C13.02 3.33 11.04 3.66 9 4 C9.66 4.66 10.32 5.32 11 6 C9.35425434 6.02688151 7.70838587 6.04634123 6.0625 6.0625 C5.14597656 6.07410156 4.22945312 6.08570313 3.28515625 6.09765625 C1 6 1 6 0 5 C0 3.35 0 1.7 0 0 Z " fill="#3F3E23" transform="translate(227,317)"/>
<path d="M0 0 C0.33 0 0.66 0 1 0 C0.96519531 1.02480469 0.93039063 2.04960937 0.89453125 3.10546875 C0.86637965 4.46612936 0.83908096 5.8268078 0.8125 7.1875 C0.78736328 7.86103516 0.76222656 8.53457031 0.73632812 9.22851562 C0.67005022 13.75750589 1.42935488 16.30933627 4 20 C4 20.66 4 21.32 4 22 C4.7425 22.12375 5.485 22.2475 6.25 22.375 C8.80141485 22.95486701 10.7267573 23.73708739 13 25 C13 25.66 13 26.32 13 27 C13.70125 27.268125 14.4025 27.53625 15.125 27.8125 C20.66877447 30.10231989 25.82125178 32.99632604 31 36 C29.4375 36.75 29.4375 36.75 27 37 C24.54271852 35.84524189 22.32246857 34.41928635 20 33 C19.34 33 18.68 33 18 33 C17.67 33.66 17.34 34.32 17 35 C15.68 34.34 14.36 33.68 13 33 C13 32.34 13 31.68 13 31 C13.66 31 14.32 31 15 31 C13.36587557 29.29159719 12.13093906 28.06546953 10 27 C10 26.34 10 25.68 10 25 C8.58622218 24.63447197 7.16879424 24.28304505 5.75 23.9375 C4.96109375 23.74027344 4.1721875 23.54304688 3.359375 23.33984375 C0.89605178 22.98502733 -0.65604132 23.23122456 -3 24 C-3.14550147 16.69259274 -3.21159362 9.22384123 -2 2 C-1.34 1.34 -0.68 0.68 0 0 Z " fill="#4B3106" transform="translate(203,217)"/>
<path d="M0 0 C5.27357122 0.25935596 5.27357122 0.25935596 8 1 C10.0625 3.3125 10.0625 3.3125 11 6 C10.6875 8.3125 10.6875 8.3125 10 10 C8.2421875 8.95833333 6.484375 7.91666667 4.7265625 6.875 C3.02527333 5.84931652 3.02527333 5.84931652 1 6 C0.608125 6.825 0.21625 7.65 -0.1875 8.5 C-1.57123285 11.17203584 -2.97410849 13.78421139 -4.5 16.375 C-4.9021875 17.06335938 -5.304375 17.75171875 -5.71875 18.4609375 C-6.1415625 18.96882813 -6.564375 19.47671875 -7 20 C-7.99 20 -8.98 20 -10 20 C-9.44509769 16.0671299 -8.31891795 13.64273515 -6 10.4375 C-3.96828556 7.61947301 -2.62370698 5.43818475 -2 2 C-1.34 2 -0.68 2 0 2 C0 1.34 0 0.68 0 0 Z " fill="#3F3A1C" transform="translate(245,221)"/>
<path d="M0 0 C0.73605469 0.27714844 1.47210938 0.55429687 2.23046875 0.83984375 C3.20628906 1.20207031 4.18210938 1.56429688 5.1875 1.9375 C6.15042969 2.29714844 7.11335937 2.65679687 8.10546875 3.02734375 C13.48452436 4.83488066 18.54089941 5.16246105 24.18676758 5.20532227 C25.40218231 5.22017166 25.40218231 5.22017166 26.64215088 5.23532104 C29.30958169 5.26680619 31.97703029 5.29164193 34.64453125 5.31640625 C36.49827018 5.336987 38.35200454 5.35798377 40.20573425 5.37937927 C45.07677497 5.43448417 49.94785724 5.48394439 54.81896973 5.53222656 C59.79276207 5.5825263 64.76649433 5.63816809 69.74023438 5.69335938 C79.49343822 5.80079923 89.24669431 5.9022755 99 6 C99 6.33 99 6.66 99 7 C87.71678535 7.27057411 76.43340335 7.5074094 65.14860821 7.70202446 C59.90772539 7.79344999 54.66758841 7.89617879 49.42749023 8.02539062 C44.36379696 8.14982588 39.3003478 8.24371853 34.23566628 8.31708145 C32.31031636 8.35021675 30.3851181 8.39407465 28.46027184 8.44918442 C17.61278834 8.75218605 9.0301001 8.93695826 0 2 C0 1.34 0 0.68 0 0 Z " fill="#413500" transform="translate(205,286)"/>
<path d="M0 0 C0.96099609 -0.00410889 1.92199219 -0.00821777 2.91210938 -0.01245117 C4.42321289 0.00144653 4.42321289 0.00144653 5.96484375 0.015625 C7.51268555 0.02468872 7.51268555 0.02468872 9.09179688 0.03393555 C18.79387035 0.16018493 28.19425339 0.62131014 36.90234375 5.265625 C37.39734375 6.255625 37.39734375 6.255625 37.90234375 7.265625 C36.27667769 6.78872296 34.65183064 6.30902834 33.02734375 5.828125 C32.12242187 5.56128906 31.2175 5.29445312 30.28515625 5.01953125 C27.90234375 4.265625 27.90234375 4.265625 25.90234375 3.265625 C13.37841425 2.30482139 -3.68828104 1.20815568 -14.87109375 7.93359375 C-15.60585937 8.37316406 -16.340625 8.81273437 -17.09765625 9.265625 C-17.75765625 8.935625 -18.41765625 8.605625 -19.09765625 8.265625 C-17.70588993 7.30139474 -16.30903395 6.34450898 -14.91015625 5.390625 C-14.13285156 4.85695312 -13.35554687 4.32328125 -12.5546875 3.7734375 C-8.38400319 1.21400325 -4.90276966 0.01284528 0 0 Z " fill="#EDD878" transform="translate(214.09765625,178.734375)"/>
<path d="M0 0 C0.598125 0.309375 1.19625 0.61875 1.8125 0.9375 C4.08956772 2.10209704 4.08956772 2.10209704 7 3 C6.62488281 3.42410156 6.24976563 3.84820312 5.86328125 4.28515625 C2.30335421 8.36517338 -0.91317997 12.5513476 -4 17 C-5.32 15.68 -6.64 14.36 -8 13 C-8.99 13.66 -9.98 14.32 -11 15 C-9.59808647 12.00745382 -7.96632511 9.4045389 -6 6.75 C-5.484375 6.04359375 -4.96875 5.3371875 -4.4375 4.609375 C-3.963125 4.07828125 -3.48875 3.5471875 -3 3 C-2.34 3 -1.68 3 -1 3 C-0.67 2.01 -0.34 1.02 0 0 Z " fill="#F0F0E9" transform="translate(160,165)"/>
<path d="M0 0 C1.875 1.0625 1.875 1.0625 3.125 3.8125 C3.79618714 6.72097762 4.04933648 9.09877984 3.875 12.0625 C2.555 12.0625 1.235 12.0625 -0.125 12.0625 C-0.785 13.3825 -1.445 14.7025 -2.125 16.0625 C-5.26093721 14.4945314 -5.86138412 12.25162579 -7.125 9.0625 C-7.05409748 5.44647161 -6.79561077 3.77935979 -4.3125 1.125 C-2.125 0.0625 -2.125 0.0625 0 0 Z " fill="#33320C" transform="translate(286.125,191.9375)"/>
<path d="M0 0 C3.37462715 0.54723683 5.08235 1.0549 8 3 C10.32108669 3.70812814 12.65377147 4.38024152 15 5 C14.01 5.66 13.02 6.32 12 7 C14.31 7.33 16.62 7.66 19 8 C16.35175491 10.64824509 14.94296725 10.35941487 11.25 10.4375 C7.09300138 10.39253247 4.46430037 10.22751931 1.25 7.5 C0.5075 6.675 -0.235 5.85 -1 5 C-0.67 3.35 -0.34 1.7 0 0 Z " fill="#403F22" transform="translate(317,346)"/>
<path d="M0 0 C0.99 0.33 1.98 0.66 3 1 C3.08114106 2.77007714 3.13925505 4.54122098 3.1875 6.3125 C3.22230469 7.29863281 3.25710938 8.28476562 3.29296875 9.30078125 C3 12 3 12 1.48828125 13.85546875 C0.99714844 14.23316406 0.50601562 14.61085938 0 15 C0 14.01 0 13.02 0 12 C-1.175625 11.566875 -1.175625 11.566875 -2.375 11.125 C-5 10 -5 10 -7 8 C-6.625 5.875 -6.625 5.875 -6 4 C-4.68 3.67 -3.36 3.34 -2 3 C-2 2.34 -2 1.68 -2 1 C-1.34 0.67 -0.68 0.34 0 0 Z " fill="#34350F" transform="translate(300,319)"/>
<path d="M0 0 C1.32 0.33 2.64 0.66 4 1 C4.74609375 2.578125 4.74609375 2.578125 5 5 C3.77369903 7.40041891 2.54429316 9.52118714 1.0625 11.75 C0.67642578 12.35199219 0.29035156 12.95398438 -0.10742188 13.57421875 C-1.06045415 15.05671339 -2.02878012 16.52935633 -3 18 C-3.66 17.01 -4.32 16.02 -5 15 C-5.66 15 -6.32 15 -7 15 C-5.63408831 11.45756548 -4.09068516 8.07372071 -2.375 4.6875 C-1.70597656 3.36298828 -1.70597656 3.36298828 -1.0234375 2.01171875 C-0.68570313 1.34785156 -0.34796875 0.68398437 0 0 Z " fill="#DE692C" transform="translate(230,217)"/>
<path d="M0 0 C0.99 0 1.98 0 3 0 C3.2475 1.134375 3.495 2.26875 3.75 3.4375 C5.29783835 9.66202138 8.12284355 15.2970649 11 21 C10.34 21 9.68 21 9 21 C9.33 22.32 9.66 23.64 10 25 C4.52211615 20.28293335 2.25684336 14.77053009 0 8 C-0.12781786 5.32605036 -0.04391871 2.67904143 0 0 Z " fill="#ECEBD3" transform="translate(186,226)"/>
<path d="M0 0 C4.88816433 -0.57507816 7.03962756 1.3328104 11 4 C14.23038842 4.79070548 14.23038842 4.79070548 17 5 C17 5.99 17 6.98 17 8 C17.66 8.33 18.32 8.66 19 9 C15.37 9.66 11.74 10.32 8 11 C7 7 7 7 7 5 C4.69 4.67 2.38 4.34 0 4 C0 2.66666667 0 1.33333333 0 0 Z " fill="#2F3408" transform="translate(211,249)"/>
<path d="M0 0 C1.32 1.32 2.64 2.64 4 4 C2.741875 4.2475 1.48375 4.495 0.1875 4.75 C-3.59205579 5.67330098 -4.86813031 6.69560199 -7 10 C-11.44839567 11.49991397 -16.10750586 11.26174387 -20.75 11.3125 C-21.61882812 11.34150391 -22.48765625 11.37050781 -23.3828125 11.40039062 C-29.68017292 11.46185135 -33.57214668 10.19990888 -39 7 C-39 6.01 -39 5.02 -39 4 C-37.33984375 5.00911458 -35.6796875 6.01822917 -34.01953125 7.02734375 C-28.82879577 9.52733047 -23.31515719 9.12024234 -17.6875 9.0625 C-16.85154297 9.05798828 -16.01558594 9.05347656 -15.15429688 9.04882812 C-13.10283351 9.03710548 -11.05140727 9.01917203 -9 9 C-9 8.34 -9 7.68 -9 7 C-9.66 6.67 -10.32 6.34 -11 6 C-10.28972656 5.65066406 -9.57945312 5.30132812 -8.84765625 4.94140625 C-7.92855469 4.48636719 -7.00945312 4.03132813 -6.0625 3.5625 C-5.14597656 3.11003906 -4.22945312 2.65757812 -3.28515625 2.19140625 C-1.09471096 1.19474606 -1.09471096 1.19474606 0 0 Z " fill="#F0DC85" transform="translate(259,262)"/>
<path d="M0 0 C4.42221699 1.02842256 7.23232216 2.48278206 10.0234375 6.15625 C12.38666288 10.61801951 12.5164941 15.31278595 11.0625 20.0625 C10.711875 20.701875 10.36125 21.34125 10 22 C9.67 22 9.34 22 9 22 C8.98582031 21.34773438 8.97164062 20.69546875 8.95703125 20.0234375 C8.60597707 13.59060681 7.68833278 10.46507884 3 6 C2.01 5.34 1.02 4.68 0 4 C0 2.68 0 1.36 0 0 Z " fill="#E4E6DB" transform="translate(246,226)"/>
<path d="M0 0 C1.546875 -0.00773438 1.546875 -0.00773438 3.125 -0.015625 C5.94597278 0.24500835 7.60145718 0.79703656 10 2.25 C9.67 3.57 9.34 4.89 9 6.25 C8.30003906 6.08886719 7.60007813 5.92773438 6.87890625 5.76171875 C3.847339 5.22286487 1.01514472 5.08195414 -2.0625 5.0625 C-3.59583984 5.04123047 -3.59583984 5.04123047 -5.16015625 5.01953125 C-7.98043159 5.24841192 -9.6055336 5.79724221 -12 7.25 C-12 6.26 -12 5.27 -12 4.25 C-11.34 4.25 -10.68 4.25 -10 4.25 C-10 3.59 -10 2.93 -10 2.25 C-6.6042877 0.19298197 -3.9382341 -0.01969117 0 0 Z " fill="#F2ECE0" transform="translate(218,211.75)"/>
<path d="M0 0 C1.65 0.33 3.3 0.66 5 1 C4.51675181 6.15464734 1.81389239 9.81550319 -1 14 C-1.66 13.01 -2.32 12.02 -3 11 C-3.99 12.32 -4.98 13.64 -6 15 C-6.66 14.67 -7.32 14.34 -8 14 C-5.36 9.38 -2.72 4.76 0 0 Z " fill="#E46826" transform="translate(238,222)"/>
<path d="M0 0 C3.36720387 1.39332574 4.9859524 2.9789286 7 6 C7.99 5.67 8.98 5.34 10 5 C10 5.99 10 6.98 10 8 C7 10 7 10 4 10 C4 10.66 4 11.32 4 12 C1.00667261 11.0022242 0.05233685 10.2477975 -2 8 C-1.34 8 -0.68 8 0 8 C0 7.01 0 6.02 0 5 C-1.65 4.67 -3.3 4.34 -5 4 C-4.67 3.34 -4.34 2.68 -4 2 C-2.68 2 -1.36 2 0 2 C0 1.34 0 0.68 0 0 Z " fill="#31320A" transform="translate(189,280)"/>
<path d="M0 0 C0.99 0 1.98 0 3 0 C3 0.66 3 1.32 3 2 C3.804375 2.12375 4.60875 2.2475 5.4375 2.375 C6.7059375 2.684375 6.7059375 2.684375 8 3 C8.33 3.66 8.66 4.32 9 5 C7.35 5 5.7 5 4 5 C1.36 9.62 -1.28 14.24 -4 19 C-4.99 19 -5.98 19 -7 19 C-6.28417189 13.93483653 -4.037205 10.61681423 -1.27734375 6.40234375 C0.31298007 3.86483779 0.31298007 3.86483779 0 0 Z " fill="#543307" transform="translate(234,218)"/>
<path d="M0 0 C1 3 1 3 0.14453125 4.90234375 C-1.84002752 7.9344702 -3.64039541 10.65038443 -6.25 13.1875 C-8.37905878 15.3925966 -8.66659957 16.99939609 -9 20 C-9.66 20 -10.32 20 -11 20 C-10.938125 20.928125 -10.87625 21.85625 -10.8125 22.8125 C-10.7799613 28.08376961 -12.48093937 32.99975875 -14 38 C-14.33 38 -14.66 38 -15 38 C-16.18680374 23.1649533 -9.02652391 11.10499981 0 0 Z " fill="#CCB249" transform="translate(187,194)"/>
<path d="M0 0 C0 0.66 0 1.32 0 2 C0.66 2 1.32 2 2 2 C2.33 1.34 2.66 0.68 3 0 C4.13643966 3.40931897 3.86747764 4.00335456 2.5625 7.1875 C2.27503906 7.90292969 1.98757812 8.61835938 1.69140625 9.35546875 C1.46324219 9.89816406 1.23507813 10.44085938 1 11 C0.67 10.01 0.34 9.02 0 8 C-0.66 7.67 -1.32 7.34 -2 7 C-2 6.67 -2 6.34 -2 6 C-2.66 6 -3.32 6 -4 6 C-4.33 6.66 -4.66 7.32 -5 8 C-6.64295195 9.36244796 -8.30824337 10.69864875 -10 12 C-10.66 11.01 -11.32 10.02 -12 9 C-4.8 0 -4.8 0 0 0 Z " fill="#31310C" transform="translate(161,151)"/>
<path d="M0 0 C2.475 0.99 2.475 0.99 5 2 C4.67 3.65 4.34 5.3 4 7 C4.66 7 5.32 7 6 7 C4.375 12.75 4.375 12.75 1 15 C0.01 14.34 -0.98 13.68 -2 13 C-1.5020163 9.26512223 -1.12508244 7.18762365 1 4 C0.69159401 1.84725052 0.69159401 1.84725052 0 0 Z M5 5 C5.66 5 6.32 5 7 5 C6.67 5.66 6.34 6.32 6 7 C5.67 6.34 5.34 5.68 5 5 Z " fill="#3A3712" transform="translate(265,173)"/>
<path d="M0 0 C0.95777344 -0.01611328 1.91554687 -0.03222656 2.90234375 -0.04882812 C3.81628906 -0.04947266 4.73023438 -0.05011719 5.671875 -0.05078125 C6.91855957 -0.05525269 6.91855957 -0.05525269 8.19042969 -0.05981445 C8.87008789 0.06304932 9.54974609 0.18591309 10.25 0.3125 C10.91 1.3025 11.57 2.2925 12.25 3.3125 C11.38375 3.1475 10.5175 2.9825 9.625 2.8125 C1.12328937 1.63267077 -8.24476448 0.65925398 -15.75 5.3125 C-19.98778719 8.59797546 -23.6314806 11.93309776 -26.75 16.3125 C-25.875 11.5625 -25.875 11.5625 -24.75 9.3125 C-24.09 9.3125 -23.43 9.3125 -22.75 9.3125 C-22.75 8.3225 -22.75 7.3325 -22.75 6.3125 C-21.1 5.9825 -19.45 5.6525 -17.75 5.3125 C-17.42 4.3225 -17.09 3.3325 -16.75 2.3125 C-11.41124651 -0.29581257 -5.80802832 -0.0198633 0 0 Z " fill="#D8C053" transform="translate(218.75,197.6875)"/>
<path d="M0 0 C1.32 0.33 2.64 0.66 4 1 C2.515 2.485 2.515 2.485 1 4 C2.98 3.67 4.96 3.34 7 3 C7.33 3.99 7.66 4.98 8 6 C6.35 6.33 4.7 6.66 3 7 C3.66 7.66 4.32 8.32 5 9 C2.03 8.505 2.03 8.505 -1 8 C-1 8.66 -1 9.32 -1 10 C-1.99 10 -2.98 10 -4 10 C-4 9.34 -4 8.68 -4 8 C-3.34 7.67 -2.68 7.34 -2 7 C-2.99 6.67 -3.98 6.34 -5 6 C-5 6.66 -5 7.32 -5 8 C-5.99 7.67 -6.98 7.34 -8 7 C-7.01 5.02 -6.02 3.04 -5 1 C-3.35 1.33 -1.7 1.66 0 2 C0 1.34 0 0.68 0 0 Z " fill="#303109" transform="translate(199,172)"/>
<path d="M0 0 C2.52588702 2.36292656 3.88820837 3.66462511 5 7 C4.01 7.495 4.01 7.495 3 8 C2.01 7.67 1.02 7.34 0 7 C0 7.66 0 8.32 0 9 C0.66 9.33 1.32 9.66 2 10 C1.01 10 0.02 10 -1 10 C-1.66 8.35 -2.32 6.7 -3 5 C-3.66 5 -4.32 5 -5 5 C-5 12.92 -5 20.84 -5 29 C-5.33 29 -5.66 29 -6 29 C-6 20.75 -6 12.5 -6 4 C-4.35 3.34 -2.7 2.68 -1 2 C-0.67 1.34 -0.34 0.68 0 0 Z " fill="#434429" transform="translate(278,326)"/>
<path d="M0 0 C0.66 0.99 1.32 1.98 2 3 C1.125 5.6875 1.125 5.6875 0 8 C-0.66 8 -1.32 8 -2 8 C-2.103125 8.721875 -2.20625 9.44375 -2.3125 10.1875 C-3 13 -3 13 -4.6875 15.5625 C-5.120625 16.366875 -5.55375 17.17125 -6 18 C-5.30859649 20.30287793 -5.30859649 20.30287793 -4 22 C-4.61875 22.433125 -5.2375 22.86625 -5.875 23.3125 C-8.2197245 24.99740483 -8.2197245 24.99740483 -10 28 C-9.41224607 17.81226514 -4.63609645 8.92877834 0 0 Z " fill="#49492F" transform="translate(152,186)"/>
<path d="M0 0 C2.64 0.33 5.28 0.66 8 1 C7.67 1.66 7.34 2.32 7 3 C6.34 2.67 5.68 2.34 5 2 C5 2.66 5 3.32 5 4 C3.35 4.33 1.7 4.66 0 5 C0 3.35 0 1.7 0 0 Z M-5 4 C-1.45094618 4.60840923 1.80087037 5.31157047 5 7 C6.04618989 9.49476051 6 11.26856911 6 14 C1.32751069 11.17477391 -1.65996398 8.32239956 -5 4 Z " fill="#3B3A1C" transform="translate(184,278)"/>
<path d="M0 0 C2.3125 0.4375 2.3125 0.4375 3.3125 1.4375 C3.40108646 4.17644085 3.42773479 6.8900327 3.41015625 9.62890625 C3.4087413 10.44874496 3.40732635 11.26858368 3.40586853 12.11326599 C3.40025289 14.74221382 3.38769779 17.37107773 3.375 20 C3.36998701 21.77799357 3.36542376 23.55598846 3.36132812 25.33398438 C3.35027839 29.70185545 3.33300331 34.06966348 3.3125 38.4375 C0.89001645 34.80377467 1.13968793 32.31669158 1.3359375 28.14453125 C1.36096344 27.43850266 1.38598938 26.73247406 1.41177368 26.00505066 C1.49386259 23.75287051 1.59049252 21.50158209 1.6875 19.25 C1.74575109 17.72204148 1.80305414 16.19404651 1.859375 14.66601562 C1.9994243 10.92266539 2.15251606 7.18004912 2.3125 3.4375 C0.6625 3.4375 -0.9875 3.4375 -2.6875 3.4375 C-2.6875 4.0975 -2.6875 4.7575 -2.6875 5.4375 C-4.0075 5.7675 -5.3275 6.0975 -6.6875 6.4375 C-3.3755 0.5495 -3.3755 0.5495 0 0 Z " fill="#47482D" transform="translate(300.6875,316.5625)"/>
<path d="M0 0 C1.19864889 1.16440178 2.39199538 2.33473885 3.55859375 3.53125 C4.92651324 4.92511919 6.33731143 6.27652455 7.75 7.625 C11.18240592 11.7137594 10.89987791 16.88467141 11 22 C10.01 22.33 9.02 22.66 8 23 C8.020625 21.989375 8.04125 20.97875 8.0625 19.9375 C8.00312266 16.19672743 7.60204915 12.68755102 7 9 C5.68 9 4.36 9 3 9 C3 9.66 3 10.32 3 11 C2.34 11 1.68 11 1 11 C1.33 9.02 1.66 7.04 2 5 C1.01 5 0.02 5 -1 5 C-0.67 3.35 -0.34 1.7 0 0 Z " fill="#E47438" transform="translate(245,227)"/>
<path d="M0 0 C0 0.66 0 1.32 0 2 C0.99 2.33 1.98 2.66 3 3 C1.35 3.33 -0.3 3.66 -2 4 C-2 3.34 -2 2.68 -2 2 C-2.99 2 -3.98 2 -5 2 C-5.33 2.66 -5.66 3.32 -6 4 C-6.33 3.01 -6.66 2.02 -7 1 C-4.53721199 -0.231394 -2.7204945 -0.07159196 0 0 Z M-4 4 C-3.34 4 -2.68 4 -2 4 C-1.67 4.66 -1.34 5.32 -1 6 C0.32 5.67 1.64 5.34 3 5 C3 6.32 3 7.64 3 9 C1.02 9 -0.96 9 -3 9 C-3.66 10.32 -4.32 11.64 -5 13 C-6.1875 11.3125 -6.1875 11.3125 -7 9 C-5.75 6.25 -5.75 6.25 -4 4 Z " fill="#2F310B" transform="translate(206,205)"/>
<path d="M0 0 C6.37117617 5.41549974 8.14285183 13.21967472 10 21 C9.34 21.66 8.68 22.32 8 23 C7.74605469 22.07316406 7.49210937 21.14632812 7.23046875 20.19140625 C6.88628906 18.99386719 6.54210937 17.79632813 6.1875 16.5625 C5.85105469 15.36753906 5.51460938 14.17257813 5.16796875 12.94140625 C4.78253906 11.97074219 4.39710938 11.00007812 4 10 C3.01 9.67 2.02 9.34 1 9 C0.01 9.495 0.01 9.495 -1 10 C-1.99 9.01 -2.98 8.02 -4 7 C-3.67 6.01 -3.34 5.02 -3 4 C-2.01 4 -1.02 4 0 4 C0 2.68 0 1.36 0 0 Z " fill="#F1D255" transform="translate(273,203)"/>
<path d="M0 0 C3.40404278 1.20142686 6.171679 2.73570305 9.125 4.796875 C12.42136026 6.9120395 15.93484154 8.64428808 19.4140625 10.4375 C22.04159715 12.02513423 23.93103722 13.74648185 26 16 C23.525 15.505 23.525 15.505 21 15 C21 14.34 21 13.68 21 13 C19.37604003 12.49663233 17.75079459 11.99741024 16.125 11.5 C15.22007812 11.2215625 14.31515625 10.943125 13.3828125 10.65625 C11.09055353 9.91149206 11.09055353 9.91149206 9 10 C9 9.01 9 8.02 9 7 C8.34 7 7.68 7 7 7 C7 6.34 7 5.68 7 5 C4.69 4.67 2.38 4.34 0 4 C0 2.68 0 1.36 0 0 Z " fill="#ECD568" transform="translate(263,266)"/>
<path d="M0 0 C0.66 0 1.32 0 2 0 C2.61366382 22.13735403 2.61366382 22.13735403 -1 29 C-1.66 29.33 -2.32 29.66 -3 30 C-2.86722656 29.42636719 -2.73445313 28.85273438 -2.59765625 28.26171875 C-0.65386035 18.91163481 -0.37465392 9.51423778 0 0 Z " fill="#F9F4E0" transform="translate(285,226)"/>
<path d="M0 0 C0 3 0 3 -1 6 C-0.34 6.33 0.32 6.66 1 7 C1 6.34 1 5.68 1 5 C2.32 5.33 3.64 5.66 5 6 C1.92307254 8.6815279 -0.19734663 9.42087807 -4.25 9.6875 C-5.14203125 9.75324219 -6.0340625 9.81898438 -6.953125 9.88671875 C-7.62859375 9.92410156 -8.3040625 9.96148437 -9 10 C-9 7 -9 7 -7.5390625 5.4296875 C-6.90742188 4.91664063 -6.27578125 4.40359375 -5.625 3.875 C-4.99851563 3.35679687 -4.37203125 2.83859375 -3.7265625 2.3046875 C-2 1 -2 1 0 0 Z " fill="#363415" transform="translate(193,173)"/>
<path d="M0 0 C1.95903745 0.47627975 3.91721097 0.95611423 5.875 1.4375 C6.96554687 1.70433594 8.05609375 1.97117187 9.1796875 2.24609375 C13.30084124 3.3477318 15.05549372 4.96626626 18 8 C18.86625 8.86625 18.86625 8.86625 19.75 9.75 C20.1625 10.1625 20.575 10.575 21 11 C17.01067803 11 16.11782608 10.77382137 12.890625 8.84765625 C12.13652344 8.40099609 11.38242187 7.95433594 10.60546875 7.49414062 C9.82816406 7.02169922 9.05085938 6.54925781 8.25 6.0625 C7.45722656 5.59392578 6.66445313 5.12535156 5.84765625 4.64257812 C1.59574091 2.09947902 1.59574091 2.09947902 0 1 C0 0.67 0 0.34 0 0 Z " fill="#43442A" transform="translate(294,278)"/>
<path d="M0 0 C5.08279817 1.19595251 7.9872955 2.52955286 12 6 C13.31138904 6.70885894 14.63777017 7.39456452 16 8 C16 8.33 16 8.66 16 9 C13.69 9 11.38 9 9 9 C8.67 8.34 8.34 7.68 8 7 C5.69 7 3.38 7 1 7 C1.66 6.01 2.32 5.02 3 4 C1.68 3.34 0.36 2.68 -1 2 C-0.67 1.34 -0.34 0.68 0 0 Z " fill="#EFCF4B" transform="translate(289,282)"/>
<path d="M0 0 C0.33 0.66 0.66 1.32 1 2 C2.98 1.34 4.96 0.68 7 0 C6.67 0.5775 6.34 1.155 6 1.75 C4.72924102 4.19883862 4.72924102 4.19883862 5 8 C5 8.66 5 9.32 5 10 C3.35 10 1.7 10 0 10 C0 9.34 0 8.68 0 8 C-0.66 8 -1.32 8 -2 8 C-2 7.34 -2 6.68 -2 6 C-1.34 6 -0.68 6 0 6 C0 5.34 0 4.68 0 4 C-0.66 4 -1.32 4 -2 4 C-1 1 -1 1 0 0 Z " fill="#323108" transform="translate(185,181)"/>
<path d="M0 0 C3.68754757 0.49831724 5.60490662 1.10067643 8 4 C7.01 5.485 7.01 5.485 6 7 C6.99 7.99 7.98 8.98 9 10 C5.53734736 9.6852134 3.41414041 9.29733158 0.5625 7.25 C-1 5 -1 5 -0.75 2.25 C-0.5025 1.5075 -0.255 0.765 0 0 Z " fill="#4A4C31" transform="translate(317,346)"/>
<path d="M0 0 C0.99 0.33 1.98 0.66 3 1 C2.36391668 4.13801103 1.29242198 6.52149131 -0.375 9.25 C-0.79523438 9.95640625 -1.21546875 10.6628125 -1.6484375 11.390625 C-2.31746094 12.18726563 -2.31746094 12.18726563 -3 13 C-3.99 13 -4.98 13 -6 13 C-5.51675181 7.84535266 -2.81389239 4.18449681 0 0 Z " fill="#5E3206" transform="translate(241,228)"/>
<path d="M0 0 C1.32 0.33 2.64 0.66 4 1 C2.43358249 5.30764815 0.31663844 9.06171464 -2 13 C-2.99 13 -3.98 13 -5 13 C-4.48749429 8.59245089 -3.4576226 5.68643389 -1 2 C-0.67 1.34 -0.34 0.68 0 0 Z " fill="#563004" transform="translate(225,219)"/>
<path d="M0 0 C0.33 0 0.66 0 1 0 C1 4.29 1 8.58 1 13 C2.65 13 4.3 13 6 13 C6.33 13.66 6.66 14.32 7 15 C6.01 15.33 5.02 15.66 4 16 C4 16.99 4 17.98 4 19 C5.98 18.67 7.96 18.34 10 18 C8 20 8 20 5.625 20.4375 C3 20 3 20 0.6875 18 C-2.47919892 12.37031302 -1.02063553 6.1238132 0 0 Z " fill="#4C4C32" transform="translate(140,220)"/>
<path d="M0 0 C1.01771484 0.00902344 2.03542969 0.01804688 3.08398438 0.02734375 C5.57707156 0.05075302 8.06965859 0.083543 10.5625 0.125 C10.5625 0.455 10.5625 0.785 10.5625 1.125 C5.2825 1.125 0.0025 1.125 -5.4375 1.125 C-5.4375 1.785 -5.4375 2.445 -5.4375 3.125 C-9.16970113 4.00316497 -12.60296731 4.38063551 -16.4375 4.125 C-17.0975 3.465 -17.7575 2.805 -18.4375 2.125 C-12.23465256 -0.08471003 -6.54148302 -0.11065619 0 0 Z " fill="#5B5D47" transform="translate(229.4375,162.875)"/>
<path d="M0 0 C0.66 0.33 1.32 0.66 2 1 C3.28317892 4.84953676 3.06643637 7.94738135 3 12 C2.01 12 1.02 12 0 12 C0 11.34 0 10.68 0 10 C-0.66 10 -1.32 10 -2 10 C-2.28875 9.21625 -2.5775 8.4325 -2.875 7.625 C-3.84912254 4.90328368 -3.84912254 4.90328368 -6 3 C-5.01 2.67 -4.02 2.34 -3 2 C-2.01 3.485 -2.01 3.485 -1 5 C-0.67 3.35 -0.34 1.7 0 0 Z " fill="#363914" transform="translate(339,336)"/>
<path d="M0 0 C0.99 0 1.98 0 3 0 C3 1.98 3 3.96 3 6 C6.63 7.98 10.26 9.96 14 12 C13.67 12.66 13.34 13.32 13 14 C10.03 13.67 7.06 13.34 4 13 C3.67 11.35 3.34 9.7 3 8 C2.34 8 1.68 8 1 8 C0.67 5.36 0.34 2.72 0 0 Z " fill="#3A3B1F" transform="translate(293,258)"/>
<path d="M0 0 C14.99491649 -0.56862745 14.99491649 -0.56862745 22 3 C23.03017628 3.96888433 24.03847705 4.96294956 25 6 C24.01 6.33 23.02 6.66 22 7 C22 6.34 22 5.68 22 5 C21.01 5 20.02 5 19 5 C19 4.34 19 3.68 19 3 C17.19402344 2.92652344 17.19402344 2.92652344 15.3515625 2.8515625 C13.77601802 2.77653657 12.20049834 2.70098867 10.625 2.625 C9.8309375 2.5940625 9.036875 2.563125 8.21875 2.53125 C2.2265625 2.2265625 2.2265625 2.2265625 0 0 Z " fill="#4F4107" transform="translate(210,199)"/>
<path d="M0 0 C1.66717977 2.50076965 2.69783245 4.56614888 3.8125 7.3125 C6.05953811 12.47984606 9.01925972 16.01925972 13 20 C9.97430502 19.929635 7.78433009 19.7694512 5.55859375 17.5859375 C1.47140454 12.04688108 -0.33072011 6.94512237 0 0 Z " fill="#EBD876" transform="translate(186,234)"/>
<path d="M0 0 C2.86724686 0.57344937 3.8614515 0.8614515 6 3 C6 3.99 6 4.98 6 6 C4.68 5.67 3.36 5.34 2 5 C2 5.66 2 6.32 2 7 C-1 9 -1 9 -4 9 C-2.94124926 5.59687262 -1.99097846 2.98646769 0 0 Z " fill="#32320C" transform="translate(181,160)"/>
<path d="M0 0 C0.66 0.99 1.32 1.98 2 3 C1.35546875 5.5234375 1.35546875 5.5234375 0.1875 8.375 C-1.24432712 11.92280372 -2.36122183 15.22227963 -3 19 C-5.20914 15.68629 -5.22481553 14.6553979 -5.125 10.8125 C-5.10695312 9.91144531 -5.08890625 9.01039063 -5.0703125 8.08203125 C-5.04710937 7.39496094 -5.02390625 6.70789063 -5 6 C-4.01 6 -3.02 6 -2 6 C-1.34 4.02 -0.68 2.04 0 0 Z " fill="#433804" transform="translate(176,205)"/>
<path d="M0 0 C0.33 0 0.66 0 1 0 C2.06309567 5.17317421 2.11693938 10.12369336 2.0625 15.375 C2.05798828 16.20644531 2.05347656 17.03789062 2.04882812 17.89453125 C2.03713164 19.92971897 2.01919935 21.96486923 2 24 C0.02130559 21.03195838 -0.34161439 19.90215354 -0.6875 16.5 C-0.77386719 15.7265625 -0.86023438 14.953125 -0.94921875 14.15625 C-1 12 -1 12 0 9 C-0.165 8.195625 -0.33 7.39125 -0.5 6.5625 C-1.01333512 3.93165749 -0.83558658 2.50675973 0 0 Z " fill="#44442C" transform="translate(299,218)"/>
<path d="M0 0 C0.33 0 0.66 0 1 0 C1.33 2.64 1.66 5.28 2 8 C1.67 8 1.34 8 1 8 C1.061875 9.7015625 1.061875 9.7015625 1.125 11.4375 C1.14183841 16.14383562 0.17621777 20.46316004 -1 25 C-1.33 25 -1.66 25 -2 25 C-2.20705918 16.3725342 -2.21462689 8.40371809 0 0 Z " fill="#525339" transform="translate(122,208)"/>
<path d="M0 0 C0.33 0 0.66 0 1 0 C1.05422947 1.4370809 1.09289723 2.87475462 1.125 4.3125 C1.14820313 5.11300781 1.17140625 5.91351563 1.1953125 6.73828125 C1 9 1 9 -1 12 C-1.66613335 14.27538323 -1.66613335 14.27538323 -2.125 16.6875 C-2.29257813 17.49574219 -2.46015625 18.30398437 -2.6328125 19.13671875 C-2.75398437 19.75160156 -2.87515625 20.36648437 -3 21 C-3.33 21 -3.66 21 -4 21 C-4.5939348 13.42733125 -2.43286286 7.12481267 0 0 Z " fill="#4F4B34" transform="translate(164,207)"/>
<path d="M0 0 C-0.33 1.32 -0.66 2.64 -1 4 C-3.64 4.33 -6.28 4.66 -9 5 C-8.34 6.65 -7.68 8.3 -7 10 C-8.32 9.34 -9.64 8.68 -11 8 C-10.45700313 4.19902189 -8.92723228 2.42542103 -6 0 C-3.33960928 -1.01720822 -2.57437055 -1.28718528 0 0 Z " fill="#E9CC56" transform="translate(199,188)"/>
<path d="M0 0 C-1.485 2.475 -1.485 2.475 -3 5 C-2.01 5.33 -1.02 5.66 0 6 C0.6875 8.0625 0.6875 8.0625 1 10 C0.43796875 9.71382812 -0.1240625 9.42765625 -0.703125 9.1328125 C-3.02870923 7.98584069 -5.37770201 6.92160206 -7.75 5.875 C-8.94882813 5.34519531 -8.94882813 5.34519531 -10.171875 4.8046875 C-10.77515625 4.53914062 -11.3784375 4.27359375 -12 4 C-9.92446352 3.4465236 -8.15634036 3 -6 3 C-6.66 2.34 -7.32 1.68 -8 1 C-5.07175348 0.02391783 -3.04386724 -0.08226668 0 0 Z " fill="#4A4C2E" transform="translate(263,177)"/>
<path d="M0 0 C0.66 0.33 1.32 0.66 2 1 C2.48137536 7.3782235 2.48137536 7.3782235 0.5 9.9375 C-3.12197655 11.47684003 -6.07962923 11.19601854 -10 11 C-9.67 10.34 -9.34 9.68 -9 9 C-6.67843403 8.59270772 -4.3431213 8.25561323 -2 8 C-1.7834375 6.576875 -1.7834375 6.576875 -1.5625 5.125 C-1 2 -1 2 0 0 Z " fill="#404128" transform="translate(234,125)"/>
<path d="M0 0 C0 0.66 0 1.32 0 2 C1.65 1.67 3.3 1.34 5 1 C5.5534764 3.07553648 6 4.84365964 6 7 C7.32 7 8.64 7 10 7 C10 7.66 10 8.32 10 9 C4.20644472 7.67231025 -0.0999919 5.33455096 -5 2 C-2 0 -2 0 0 0 Z " fill="#4A492C" transform="translate(224,259)"/>
<path d="M0 0 C7.26153846 -0.49230769 7.26153846 -0.49230769 11 2 C11.66 2.66 12.32 3.32 13 4 C12.67 4.66 12.34 5.32 12 6 C12.33 6.99 12.66 7.98 13 9 C12.34 9 11.68 9 11 9 C10.443125 8.4225 9.88625 7.845 9.3125 7.25 C6.44288349 4.45794069 3.52026705 2.89552841 0 1 C0 0.67 0 0.34 0 0 Z " fill="#FAF5D3" transform="translate(254,186)"/>
<path d="M0 0 C1.41764994 0.93601246 2.83407568 1.8738792 4.25 2.8125 C5.03890625 3.33457031 5.8278125 3.85664063 6.640625 4.39453125 C8.81092481 5.87134122 10.91413768 7.40689873 13 9 C11.35 9.33 9.7 9.66 8 10 C8 9.34 8 8.68 8 8 C6.02 8.99 6.02 8.99 4 10 C3.32845067 8.71086513 2.66291141 7.41859796 2 6.125 C1.62875 5.40570313 1.2575 4.68640625 0.875 3.9453125 C0 2 0 2 0 0 Z " fill="#453E0B" transform="translate(191,277)"/>
<path d="M0 0 C1 2 1 2 0.44140625 4.1640625 C0.15136719 4.97617188 -0.13867188 5.78828125 -0.4375 6.625 C-0.72496094 7.44226563 -1.01242188 8.25953125 -1.30859375 9.1015625 C-1.53675781 9.72804687 -1.76492187 10.35453125 -2 11 C-4.64 10.67 -7.28 10.34 -10 10 C-10 9.01 -10 8.02 -10 7 C-9.34 7 -8.68 7 -8 7 C-8 5.68 -8 4.36 -8 3 C-7.34 3.33 -6.68 3.66 -6 4 C-6.33 5.32 -6.66 6.64 -7 8 C-3.59548229 6.86516076 -3.3994436 6.44722063 -1.8125 3.4375 C-1.214375 2.303125 -0.61625 1.16875 0 0 Z " fill="#D86420" transform="translate(242,233)"/>
<path d="M0 0 C-0.625 1.875 -0.625 1.875 -2 4 C-5.125 5.25 -5.125 5.25 -8 6 C-8.33 5.34 -8.66 4.68 -9 4 C-9.33 4 -9.66 4 -10 4 C-11.33568021 3.67619874 -12.66923011 3.34342449 -14 3 C-12.42274653 2.29866401 -10.83788667 1.614417 -9.25 0.9375 C-7.92742187 0.36322266 -7.92742187 0.36322266 -6.578125 -0.22265625 C-3.84743691 -1.04600008 -2.63098653 -0.9773992 0 0 Z " fill="#49482B" transform="translate(200,129)"/>
<path d="M0 0 C3.63 0.33 7.26 0.66 11 1 C11 1.66 11 2.32 11 3 C11.66 3.33 12.32 3.66 13 4 C12.67 4.99 12.34 5.98 12 7 C7.69235185 5.43358249 3.93828536 3.31663844 0 1 C0 0.67 0 0.34 0 0 Z " fill="#424225" transform="translate(207,253)"/>
<path d="M0 0 C3.37462715 0.54723683 5.08235 1.0549 8 3 C8 3.66 8 4.32 8 5 C8.66 5 9.32 5 10 5 C9.67 6.32 9.34 7.64 9 9 C7.68 9 6.36 9 5 9 C5 7.02 5 5.04 5 3 C3.35 3 1.7 3 0 3 C0 2.01 0 1.02 0 0 Z " fill="#3A3304" transform="translate(233,205)"/>
<path d="M0 0 C0.66 0.33 1.32 0.66 2 1 C1.67 3.31 1.34 5.62 1 8 C1.99 7.67 2.98 7.34 4 7 C4 7.66 4 8.32 4 9 C3.01 9.495 3.01 9.495 2 10 C2 10.99 2 11.98 2 13 C1.34 13 0.68 13 0 13 C-0.52992692 11.54494642 -1.0486789 10.08581873 -1.5625 8.625 C-1.85253906 7.81289062 -2.14257812 7.00078125 -2.44140625 6.1640625 C-3 4 -3 4 -2 2 C-1.34 2 -0.68 2 0 2 C0 1.34 0 0.68 0 0 Z M2 0 C4 1 4 1 4 1 Z " fill="#30320A" transform="translate(178,187)"/>
<path d="M0 0 C-2.84254237 1.89502825 -4.03417826 2.32403753 -7.25 2.875 C-10.55201667 3.53755799 -13.06193884 4.43322684 -15.9375 6.1875 C-17.4534375 7.0846875 -17.4534375 7.0846875 -19 8 C-19.66 7.67 -20.32 7.34 -21 7 C-19.60823368 6.03576974 -18.2113777 5.07888398 -16.8125 4.125 C-16.03519531 3.59132812 -15.25789062 3.05765625 -14.45703125 2.5078125 C-9.19990088 -0.71834382 -6.10725227 -1.19750045 0 0 Z " fill="#E7DBB0" transform="translate(216,180)"/>
<path d="M0 0 C1.98 0.66 3.96 1.32 6 2 C6 2.99 6 3.98 6 5 C4.68 4.67 3.36 4.34 2 4 C2 5.65 2 7.3 2 9 C0.35 9.33 -1.3 9.66 -3 10 C-2.690625 9.46375 -2.38125 8.9275 -2.0625 8.375 C-0.82172561 5.6015043 -0.4090325 2.99957163 0 0 Z " fill="#323109" transform="translate(270,250)"/>
<path d="M0 0 C0.99 0 1.98 0 3 0 C3.33 4.29 3.66 8.58 4 13 C3.67 12.34 3.34 11.68 3 11 C2.34 11 1.68 11 1 11 C-0.28317892 7.15046324 -0.06643637 4.05261865 0 0 Z " fill="#FCF7DE" transform="translate(186,226)"/>
<path d="M0 0 C2.95051654 3.45922629 5.25855517 6.7838704 7 11 C6.67 11.99 6.34 12.98 6 14 C5.34 14 4.68 14 4 14 C0.99778216 9.49667324 -0.31896025 5.42232421 0 0 Z " fill="#3A3A1E" transform="translate(288,193)"/>
<path d="M0 0 C1.51708428 9.41002278 1.51708428 9.41002278 -1 14 C-1.33 14 -1.66 14 -2 14 C-2.06058594 13.31292969 -2.12117187 12.62585938 -2.18359375 11.91796875 C-2.26738281 11.01691406 -2.35117188 10.11585938 -2.4375 9.1875 C-2.51871094 8.29417969 -2.59992188 7.40085938 -2.68359375 6.48046875 C-2.93489767 3.87256441 -2.93489767 3.87256441 -4 1 C-2 0 -2 0 0 0 Z " fill="#E5D4BB" transform="translate(257,234)"/>
<path d="M0 0 C1.46080933 0.61919078 2.91857455 1.24556692 4.375 1.875 C5.18710938 2.22304687 5.99921875 2.57109375 6.8359375 2.9296875 C9 4 9 4 11 6 C10.67 6.66 10.34 7.32 10 8 C7.36 7.34 4.72 6.68 2 6 C2 4.68 2 3.36 2 2 C1.34 2 0.68 2 0 2 C0 1.34 0 0.68 0 0 Z " fill="#574A13" transform="translate(241,208)"/>
<path d="M0 0 C0.66 0.33 1.32 0.66 2 1 C2 2.32 2 3.64 2 5 C-1.15354701 7.43683178 -4.43727607 9.24961824 -8 11 C-7.04454634 9.53977837 -6.08553322 8.08188532 -5.125 6.625 C-4.59132812 5.81289062 -4.05765625 5.00078125 -3.5078125 4.1640625 C-2 2 -2 2 0 0 Z " fill="#47462D" transform="translate(146,162)"/>
<path d="M0 0 C1.65 0 3.3 0 5 0 C5.33 1.32 5.66 2.64 6 4 C6.66 4 7.32 4 8 4 C8 5.32 8 6.64 8 8 C7.34 8 6.68 8 6 8 C6 7.01 6 6.02 6 5 C5.67 5.66 5.34 6.32 5 7 C4.34 7 3.68 7 3 7 C3 6.34 3 5.68 3 5 C2.34 5 1.68 5 1 5 C0.67 3.35 0.34 1.7 0 0 Z " fill="#323311" transform="translate(278,333)"/>
<path d="M0 0 C0.33 0 0.66 0 1 0 C1.61719218 9.78935379 1.61719218 9.78935379 -0.625 14.1875 C-3.60736483 16.46351526 -5.33422184 16.4165657 -9 16 C-7.68 15.67 -6.36 15.34 -5 15 C-5 14.01 -5 13.02 -5 12 C-4.0409375 11.443125 -4.0409375 11.443125 -3.0625 10.875 C-0.1194766 8.19952418 -0.3477328 5.70519235 -0.078125 1.86328125 C-0.05234375 1.24839844 -0.0265625 0.63351563 0 0 Z " fill="#5E5D46" transform="translate(132,224)"/>
<path d="M0 0 C0.99 0.66 1.98 1.32 3 2 C1.23050388 2.50471197 -0.54065223 3.00360685 -2.3125 3.5 C-3.79169922 3.91765625 -3.79169922 3.91765625 -5.30078125 4.34375 C-8 5 -8 5 -11 5 C-11 3 -11 3 -9.4375 1.375 C-6.1286211 -0.49154707 -3.74242418 -0.34022038 0 0 Z " fill="#47472F" transform="translate(205,137)"/>
<path d="M0 0 C-0.33 1.65 -0.66 3.3 -1 5 C-4.68754757 4.50168276 -6.60490662 3.89932357 -9 1 C-3.375 -1.125 -3.375 -1.125 0 0 Z " fill="#4B4F35" transform="translate(340,321)"/>
<path d="M0 0 C3.37462715 0.54723683 5.08235 1.0549 8 3 C8 3.99 8 4.98 8 6 C2.25 5.125 2.25 5.125 0 4 C0 2.68 0 1.36 0 0 Z " fill="#F7F6E9" transform="translate(212,258)"/>
<path d="M0 0 C0.33 0 0.66 0 1 0 C0.22095672 11.52164009 0.22095672 11.52164009 -2 17 C-2.33 17 -2.66 17 -3 17 C-3.34548714 10.66606918 -2.29342747 5.89738492 0 0 Z " fill="#DAC245" transform="translate(175,215)"/>
<path d="M0 0 C0.33 0.66 0.66 1.32 1 2 C0.67 2.66 0.34 3.32 0 4 C0.66 4 1.32 4 2 4 C1.67 4.99 1.34 5.98 1 7 C0.67 6.34 0.34 5.68 0 5 C-0.66 5 -1.32 5 -2 5 C-1.34 3.35 -0.68 1.7 0 0 Z M1 2 C1.66 2 2.32 2 3 2 C2.67 2.66 2.34 3.32 2 4 C1.67 3.34 1.34 2.68 1 2 Z M1 8 C-0.32 9.32 -1.64 10.64 -3 12 C-3.99 11.01 -4.98 10.02 -6 9 C-2.375 6.875 -2.375 6.875 1 8 Z " fill="#302F0E" transform="translate(269,176)"/>
<path d="M0 0 C0.66 0.33 1.32 0.66 2 1 C1.67815583 3.89659753 1.38591512 6.31897331 -0.0625 8.875 C-3.26056073 10.73193849 -6.35518997 10.17925295 -10 10 C-10 9.67 -10 9.34 -10 9 C-6.535 8.505 -6.535 8.505 -3 8 C-1.92474806 5.34771188 -0.90543849 2.71631546 0 0 Z " fill="#5A5A47" transform="translate(235,146)"/>
<path d="M0 0 C1 3 1 3 0.0625 5.1875 C-0.288125 5.785625 -0.63875 6.38375 -1 7 C-1.66 7 -2.32 7 -3 7 C-3 6.34 -3 5.68 -3 5 C-3.78375 5.515625 -4.5675 6.03125 -5.375 6.5625 C-6.24125 7.036875 -7.1075 7.51125 -8 8 C-8.66 7.67 -9.32 7.34 -10 7 C-8.71372289 5.82739389 -7.42080217 4.6620717 -6.125 3.5 C-5.04605469 2.52546875 -5.04605469 2.52546875 -3.9453125 1.53125 C-2 0 -2 0 0 0 Z M-5 7 C-3 8 -3 8 -3 8 Z " fill="#46472B" transform="translate(164,146)"/>
<path d="M0 0 C2.97 0.33 5.94 0.66 9 1 C9.33 1.99 9.66 2.98 10 4 C5.545 4.495 5.545 4.495 1 5 C0.67 3.35 0.34 1.7 0 0 Z " fill="#333212" transform="translate(327,317)"/>
<path d="M0 0 C0.73605469 0.27714844 1.47210938 0.55429687 2.23046875 0.83984375 C3.20628906 1.20207031 4.18210938 1.56429688 5.1875 1.9375 C6.15042969 2.29714844 7.11335937 2.65679687 8.10546875 3.02734375 C10.7368278 3.91156562 13.26894908 4.52568586 16 5 C14.68 5.99 13.36 6.98 12 8 C8.04 6.02 4.08 4.04 0 2 C0 1.34 0 0.68 0 0 Z " fill="#473C04" transform="translate(205,286)"/>
<path d="M0 0 C0.66 0.99 1.32 1.98 2 3 C1.67 3.53625 1.34 4.0725 1 4.625 C-0.25941162 7.6161026 -0.26855835 9.77729983 0 13 C0.65129797 14.34090759 1.31513275 15.67592331 2 17 C1.67 17.99 1.34 18.98 1 20 C-2.7360459 15.32994263 -2.57054709 10.70547094 -2 5 C-1 1.875 -1 1.875 0 0 Z " fill="#C26933" transform="translate(205,217)"/>
<path d="M0 0 C2.64 1.32 5.28 2.64 8 4 C5 6 5 6 2.8125 5.625 C2.214375 5.41875 1.61625 5.2125 1 5 C1 5.66 1 6.32 1 7 C0.01 7 -0.98 7 -2 7 C-2 6.01 -2 5.02 -2 4 C-1.34 3.67 -0.68 3.34 0 3 C0 2.01 0 1.02 0 0 Z " fill="#3F3C03" transform="translate(251,214)"/>
<path d="M0 0 C0 2.97 0 5.94 0 9 C-1.65 9 -3.3 9 -5 9 C-5.36666667 3.5 -5.36666667 3.5 -3.625 1.125 C-2 0 -2 0 0 0 Z " fill="#323106" transform="translate(167,215)"/>
<path d="M0 0 C0.33 1.32 0.66 2.64 1 4 C0.01 4.33 -0.98 4.66 -2 5 C-2.33 5.99 -2.66 6.98 -3 8 C-4.62332967 9.38576923 -6.28724465 10.72641268 -8 12 C-8.66 11.67 -9.32 11.34 -10 11 C-6.7 7.37 -3.4 3.74 0 0 Z " fill="#47472F" transform="translate(167,168)"/>
<path d="M0 0 C0 0.66 0 1.32 0 2 C-5.64399358 4.44064587 -10.97751478 4.19289099 -17 4 C-12.0251208 0.68341387 -5.96431647 -0.38479461 0 0 Z " fill="#505136" transform="translate(218,144)"/>
<path d="M0 0 C0.66 0 1.32 0 2 0 C1.67 5.28 1.34 10.56 1 16 C0.67 16 0.34 16 0 16 C0 14.02 0 12.04 0 10 C-0.66 10 -1.32 10 -2 10 C-1.125 2.25 -1.125 2.25 0 0 Z " fill="#D4CFAA" transform="translate(189,216)"/>
<path d="M0 0 C2.86825757 2.45496397 4.00185451 4.92497007 5.3125 8.4375 C5.67988281 9.38496094 6.04726563 10.33242187 6.42578125 11.30859375 C7 14 7 14 6.10546875 16.34765625 C5.55826172 17.16556641 5.55826172 17.16556641 5 18 C4.35105763 15.93847611 3.7059736 13.87573742 3.0625 11.8125 C2.52302734 10.08966797 2.52302734 10.08966797 1.97265625 8.33203125 C1.16243964 5.55646994 0.50865693 2.84312452 0 0 Z " fill="#EDD773" transform="translate(276,208)"/>
<path d="M0 0 C1.74271938 2.297221 3.39911152 4.59866729 5 7 C4.625 9.1875 4.625 9.1875 4 11 C3.62875 10.2575 3.2575 9.515 2.875 8.75 C0.67637865 5.52535535 -1.67963799 3.99221721 -5 2 C-4.360625 1.855625 -3.72125 1.71125 -3.0625 1.5625 C-1.02454854 1.18992819 -1.02454854 1.18992819 0 0 Z " fill="#DCC34F" transform="translate(262,216)"/>
<path d="M0 0 C0.99 0.495 0.99 0.495 2 1 C2 1.66 2 2.32 2 3 C2.639375 3.268125 3.27875 3.53625 3.9375 3.8125 C6 5 6 5 7 8 C7.99 8.33 8.98 8.66 10 9 C9.67 9.66 9.34 10.32 9 11 C6.525 10.01 6.525 10.01 4 9 C4 8.01 4 7.02 4 6 C3.34 6 2.68 6 2 6 C0 3 0 3 0 0 Z " fill="#EDD66B" transform="translate(263,192)"/>
<path d="M0 0 C1.53445094 3.06890187 0.54984289 5.70094266 0 9 C-1.98 9.33 -3.96 9.66 -6 10 C-4.6302836 6.00499382 -2.74277578 3.19990508 0 0 Z " fill="#464629" transform="translate(175,189)"/>
<path d="M0 0 C1.134375 0.020625 2.26875 0.04125 3.4375 0.0625 C3.4375 1.0525 3.4375 2.0425 3.4375 3.0625 C0.4675 3.7225 -2.5025 4.3825 -5.5625 5.0625 C-4.31580396 0.07571586 -4.31580396 0.07571586 0 0 Z " fill="#F6D035" transform="translate(245.5625,184.9375)"/>
<path d="M0 0 C1.66666667 0 3.33333333 0 5 0 C3.22054913 4.04420651 0.60470327 7.46078487 -2 11 C-2.66 10.34 -3.32 9.68 -4 9 C-3.67 8.34 -3.34 7.68 -3 7 C-2.34 7 -1.68 7 -1 7 C-0.67 4.69 -0.34 2.38 0 0 Z " fill="#424227" transform="translate(151,169)"/>
<path d="M0 0 C1.7325 0.928125 1.7325 0.928125 3.5 1.875 C7.60313625 3.94122218 11.51700017 5.03935718 16 6 C16 6.33 16 6.66 16 7 C10.21102202 7.48241483 5.7716576 6.47981859 1 3 C0.67 2.01 0.34 1.02 0 0 Z " fill="#ECD364" transform="translate(219,266)"/>
<path d="M0 0 C3.70270486 5.5540573 4.22186294 9.45504337 4 16 C0.48766061 10.73149092 -0.25153688 6.28842188 0 0 Z " fill="#D8C14D" transform="translate(172,237)"/>
<path d="M0 0 C1.9375 1.3125 1.9375 1.3125 4 4 C4.6575225 7.65582511 4.87210648 11.29108788 5 15 C4.01 15.33 3.02 15.66 2 16 C2.04125 15.030625 2.0825 14.06125 2.125 13.0625 C2.14348933 8.55110276 1.10517422 4.35162348 0 0 Z " fill="#E27E4B" transform="translate(251,234)"/>
<path d="M0 0 C1.98 0.495 1.98 0.495 4 1 C4.93065133 3.60582371 5.14917407 4.64198224 4.0625 7.25 C3.711875 7.8275 3.36125 8.405 3 9 C1.68 8.67 0.36 8.34 -1 8 C-0.67 5.36 -0.34 2.72 0 0 Z " fill="#303109" transform="translate(134,183)"/>
<path d="M0 0 C3.63094642 2.64960955 5.89851796 5.01824456 8 9 C6.68 8.67 5.36 8.34 4 8 C3.67 8.99 3.34 9.98 3 11 C3 10.01 3 9.02 3 8 C2.34 7.67 1.68 7.34 1 7 C1 6.01 1 5.02 1 4 C0.6937566 2.66018514 0.36548445 1.32488113 0 0 Z " fill="#424126" transform="translate(280,184)"/>
<path d="M0 0 C0.66 0 1.32 0 2 0 C2 2.31 2 4.62 2 7 C0.35 7.33 -1.3 7.66 -3 8 C-2.25 2.25 -2.25 2.25 0 0 Z " fill="#3E3E22" transform="translate(156,181)"/>
<path d="M0 0 C2.21399303 3.79541663 3.00980198 7.75629421 4 12 C2.68 11.67 1.36 11.34 0 11 C-1.125 3.375 -1.125 3.375 0 0 Z " fill="#534607" transform="translate(172,244)"/>
<path d="M0 0 C0.66 0 1.32 0 2 0 C2 0.99 2 1.98 2 3 C2.66 3 3.32 3 4 3 C4 3.66 4 4.32 4 5 C1.03 5.66 -1.94 6.32 -5 7 C-3.625 4.5 -3.625 4.5 -2 2 C-1.34 2 -0.68 2 0 2 C0 1.34 0 0.68 0 0 Z " fill="#454526" transform="translate(181,182)"/>
<path d="M0 0 C1.66611905 -0.042721 3.33382885 -0.04063832 5 0 C6 1 6 1 6.0625 4.0625 C6.041875 5.031875 6.02125 6.00125 6 7 C5.38125 6.525625 4.7625 6.05125 4.125 5.5625 C2.09294454 3.97582559 2.09294454 3.97582559 0 3 C0 2.01 0 1.02 0 0 Z " fill="#313211" transform="translate(333,335)"/>
<path d="M0 0 C1 2 1 2 0.0625 5.125 C-0.288125 6.07375 -0.63875 7.0225 -1 8 C-1.66 8 -2.32 8 -3 8 C-3.33 9.32 -3.66 10.64 -4 12 C-4.33292585 7.75519536 -4.43885872 5.64457375 -2 2.0625 C-1.34 1.381875 -0.68 0.70125 0 0 Z " fill="#444529" transform="translate(321,318)"/>
<path d="M0 0 C2.62561109 -0.08074203 5.24875676 -0.1403623 7.875 -0.1875 C8.99455078 -0.22520508 8.99455078 -0.22520508 10.13671875 -0.26367188 C12.3046875 -0.29296875 12.3046875 -0.29296875 16 0 C16.66 0.99 17.32 1.98 18 3 C12.06 2.34 6.12 1.68 0 1 C0 0.67 0 0.34 0 0 Z " fill="#CBB347" transform="translate(213,198)"/>
<path d="M0 0 C0 0.66 0 1.32 0 2 C2.64 2 5.28 2 8 2 C8 2.33 8 2.66 8 3 C7.32453125 3.04898438 6.6490625 3.09796875 5.953125 3.1484375 C5.06109375 3.22320312 4.1690625 3.29796875 3.25 3.375 C2.36828125 3.44460937 1.4865625 3.51421875 0.578125 3.5859375 C-1.99066382 3.99850055 -3.75841015 4.71160957 -6 6 C-6 5.01 -6 4.02 -6 3 C-5.34 3 -4.68 3 -4 3 C-4 2.34 -4 1.68 -4 1 C-2 0 -2 0 0 0 Z " fill="#E8BFA2" transform="translate(212,213)"/>
<path d="M0 0 C0.66 0.33 1.32 0.66 2 1 C1.67 1.66 1.34 2.32 1 3 C0.34 3 -0.32 3 -1 3 C-1.33 3.99 -1.66 4.98 -2 6 C-3.98 6 -5.96 6 -8 6 C-3.375 1.125 -3.375 1.125 0 0 Z " fill="#514508" transform="translate(207,200)"/>
<path d="M0 0 C-0.33 1.65 -0.66 3.3 -1 5 C-2.65 5.33 -4.3 5.66 -6 6 C-6 3 -6 3 -5 1 C-2 0 -2 0 0 0 Z " fill="#363719" transform="translate(295,331)"/>
<path d="M0 0 C4.10811428 1.44992269 7.46855666 3.45407573 11 6 C11 6.33 11 6.66 11 7 C8.69 7 6.38 7 4 7 C4 5.68 4 4.36 4 3 C2.68 2.34 1.36 1.68 0 1 C0 0.67 0 0.34 0 0 Z " fill="#ECD366" transform="translate(294,284)"/>
<path d="M0 0 C0.99 0.66 1.98 1.32 3 2 C3 2.99 3 3.98 3 5 C1.02 5.33 -0.96 5.66 -3 6 C-3.33 4.68 -3.66 3.36 -4 2 C-2.68 2 -1.36 2 0 2 C0 1.34 0 0.68 0 0 Z " fill="#30300E" transform="translate(147,233)"/>
<path d="M0 0 C0.33 0.66 0.66 1.32 1 2 C1.66 2.33 2.32 2.66 3 3 C2.34 3 1.68 3 1 3 C0.67 4.98 0.34 6.96 0 9 C-0.99 9 -1.98 9 -3 9 C-2.44271087 5.65626525 -1.64826111 2.96687001 0 0 Z " fill="#E66519" transform="translate(219,230)"/>
<path d="M0 0 C1.98 0.66 3.96 1.32 6 2 C5.01 2.66 4.02 3.32 3 4 C2.67 4.99 2.34 5.98 2 7 C1.34 7 0.68 7 0 7 C-0.38133299 5.0085944 -0.71325582 3.00720923 -1 1 C-0.67 0.67 -0.34 0.34 0 0 Z " fill="#464729" transform="translate(331,332)"/>
<path d="M0 0 C-0.33 0.66 -0.66 1.32 -1 2 C-1.66 2 -2.32 2 -3 2 C-3 2.66 -3 3.32 -3 4 C-4.32 4 -5.64 4 -7 4 C-7.33 4.66 -7.66 5.32 -8 6 C-7.625 3.5625 -7.625 3.5625 -7 1 C-4.53721199 -0.231394 -2.7204945 -0.07159196 0 0 Z " fill="#D6D5C9" transform="translate(331,322)"/>
<path d="M0 0 C1.98 0 3.96 0 6 0 C6.33 0.99 6.66 1.98 7 3 C8.32 3 9.64 3 11 3 C11.33 3.99 11.66 4.98 12 6 C7.76570244 4.68938409 3.92592596 3.05643741 0 1 C0 0.67 0 0.34 0 0 Z " fill="#545734" transform="translate(261,260)"/>
<path d="M0 0 C0.99 0.495 0.99 0.495 2 1 C3.28317892 4.84953676 3.06643637 7.94738135 3 12 C2.690625 11.360625 2.38125 10.72125 2.0625 10.0625 C1.1654837 8.06389179 1.1654837 8.06389179 0 7 C-0.04092937 4.66702567 -0.04241723 2.33294775 0 0 Z " fill="#4A4A32" transform="translate(339,336)"/>
<path d="M0 0 C1.98 0.99 3.96 1.98 6 3 C5.01 3.495 5.01 3.495 4 4 C3.67 4.99 3.34 5.98 3 7 C1.02 6.01 -0.96 5.02 -3 4 C-2.34 3.67 -1.68 3.34 -1 3 C-0.01 3.33 0.98 3.66 2 4 C2 3.34 2 2.68 2 2 C1.34 2 0.68 2 0 2 C0 1.34 0 0.68 0 0 Z " fill="#F1EDD2" transform="translate(208,254)"/>
<path d="M0 0 C2.475 0.495 2.475 0.495 5 1 C5 2.32 5 3.64 5 5 C3.35 4.67 1.7 4.34 0 4 C0 2.68 0 1.36 0 0 Z " fill="#F1E2D4" transform="translate(238,222)"/>
<path d="M0 0 C1.32 0.33 2.64 0.66 4 1 C4.33 2.32 4.66 3.64 5 5 C4.01 5.495 4.01 5.495 3 6 C2.01 5.34 1.02 4.68 0 4 C0 2.68 0 1.36 0 0 Z " fill="#E8E4CE" transform="translate(230,217)"/>
<path d="M0 0 C0 4.38968456 -2.12805101 5.76905739 -5 9 C-5.99 8.67 -6.98 8.34 -8 8 C-5.36 5.36 -2.72 2.72 0 0 Z " fill="#DDDDD3" transform="translate(178,175)"/>
<path d="M0 0 C0 3 0 3 -2 5.1875 C-2.66 5.785625 -3.32 6.38375 -4 7 C-4.99 6.34 -5.98 5.68 -7 5 C-4.69 3.35 -2.38 1.7 0 0 Z " fill="#4A4A2E" transform="translate(193,173)"/>
<path d="M0 0 C1.98 0.66 3.96 1.32 6 2 C2.25 3.125 2.25 3.125 0 2 C0 1.34 0 0.68 0 0 Z M-1 3 C-0.01 3.33 0.98 3.66 2 4 C1.67 4.99 1.34 5.98 1 7 C-1.475 6.01 -1.475 6.01 -4 5 C-3.01 4.34 -2.02 3.68 -1 3 Z " fill="#4F4E33" transform="translate(324,329)"/>
<path d="M0 0 C1.98 0 3.96 0 6 0 C6 0.66 6 1.32 6 2 C6.66 2 7.32 2 8 2 C8 2.99 8 3.98 8 5 C4.62496331 3.8141763 2.35277269 2.72426311 0 0 Z " fill="#4C4B2D" transform="translate(280,270)"/>
<path d="M0 0 C0.99 0 1.98 0 3 0 C3 0.99 3 1.98 3 3 C3.66 3 4.32 3 5 3 C5.33 4.32 5.66 5.64 6 7 C3.5625 6.3125 3.5625 6.3125 1 5 C0.1875 2.375 0.1875 2.375 0 0 Z " fill="#E2E2D6" transform="translate(295,260)"/>
<path d="M0 0 C2 3 2 3 1.625 5.6875 C1.41875 6.450625 1.2125 7.21375 1 8 C1.66 8 2.32 8 3 8 C2.67 8.66 2.34 9.32 2 10 C1.34 9.67 0.68 9.34 0 9 C0 8.34 0 7.68 0 7 C-1.32 6.67 -2.64 6.34 -4 6 C-3.34 5.67 -2.68 5.34 -2 5 C-1.27840576 3.35636866 -0.60648579 1.68949614 0 0 Z " fill="#535030" transform="translate(285,250)"/>
<path d="M0 0 C1.98 0.66 3.96 1.32 6 2 C4.75 3.5625 4.75 3.5625 3 5 C0.8125 4.6875 0.8125 4.6875 -1 4 C-0.67 2.68 -0.34 1.36 0 0 Z " fill="#382F18" transform="translate(221,249)"/>
<path d="M0 0 C0.99 0 1.98 0 3 0 C3 0.66 3 1.32 3 2 C3.804375 2.12375 4.60875 2.2475 5.4375 2.375 C6.7059375 2.684375 6.7059375 2.684375 8 3 C8.33 3.66 8.66 4.32 9 5 C6.69 5 4.38 5 2 5 C1.34 3.35 0.68 1.7 0 0 Z " fill="#544E38" transform="translate(234,218)"/>
<path d="M0 0 C3 1 3 1 4.75 3.3125 C6 6 6 6 5.6875 8.3125 C5.460625 8.869375 5.23375 9.42625 5 10 C4.34 9.67 3.68 9.34 3 9 C3.33 7.35 3.66 5.7 4 4 C2.68 3.67 1.36 3.34 0 3 C0 2.01 0 1.02 0 0 Z " fill="#474526" transform="translate(224,210)"/>
<path d="M0 0 C1 3 1 3 0.0390625 5.04296875 C-0.42757812 5.75066406 -0.89421875 6.45835937 -1.375 7.1875 C-1.83648437 7.90292969 -2.29796875 8.61835938 -2.7734375 9.35546875 C-3.17820313 9.89816406 -3.58296875 10.44085938 -4 11 C-4.33 11 -4.66 11 -5 11 C-5.39169887 8.33644766 -5.40564529 6.60775627 -3.88671875 4.33203125 C-2.63610683 2.8489112 -1.32135486 1.42045648 0 0 Z " fill="#D7C14D" transform="translate(187,194)"/>
<path d="M0 0 C-2.85306797 2.32472205 -5.54074837 3.7508258 -9 5 C-8.625 3.0625 -8.625 3.0625 -8 1 C-5.29120665 -0.35439668 -2.99066732 -0.06501451 0 0 Z " fill="#404028" transform="translate(198,162)"/>
<path d="M0 0 C0.66 0.33 1.32 0.66 2 1 C-1.12621626 4.39417765 -3.56541027 6.6062718 -8 8 C-5.33333333 5.33333333 -2.66666667 2.66666667 0 0 Z " fill="#4B4A33" transform="translate(176,160)"/>
<path d="M0 0 C0.66 0.33 1.32 0.66 2 1 C1.34 2.65 0.68 4.3 0 6 C-2.97 5.505 -2.97 5.505 -6 5 C-4.06745228 2.9754262 -2.36841312 1.57894208 0 0 Z " fill="#55573C" transform="translate(190,151)"/>
<path d="M0 0 C1.32 1.32 2.64 2.64 4 4 C0.7 4.33 -2.6 4.66 -6 5 C-4.62308038 2.24616077 -2.63279958 1.48516899 0 0 Z " fill="#CEBE7A" transform="translate(259,262)"/>
<path d="M0 0 C0.33 0.66 0.66 1.32 1 2 C2.94603274 2.59070014 2.94603274 2.59070014 5 3 C5.66 3.33 6.32 3.66 7 4 C6.67 5.32 6.34 6.64 6 8 C1.3125 4.38671875 1.3125 4.38671875 0 3 C0 2.01 0 1.02 0 0 Z " fill="#FEE7D8" transform="translate(246,227)"/>
<path d="M0 0 C0.33 0 0.66 0 1 0 C1.95261487 4.76307437 2.08333357 9.1666528 2 14 C1.67 14 1.34 14 1 14 C0.63495397 12.41913952 0.28339494 10.83516093 -0.0625 9.25 C-0.25972656 8.36828125 -0.45695312 7.4865625 -0.66015625 6.578125 C-0.99825872 4.01320972 -0.81158635 2.42908361 0 0 Z " fill="#60604B" transform="translate(299,218)"/>
<path d="M0 0 C0.99 0.33 1.98 0.66 3 1 C2.34 3.31 1.68 5.62 1 8 C0.01 8 -0.98 8 -2 8 C-1.125 1.125 -1.125 1.125 0 0 Z " fill="#ECD25D" transform="translate(191,208)"/>
<path d="M0 0 C0.66 0.99 1.32 1.98 2 3 C1.38125 3.433125 0.7625 3.86625 0.125 4.3125 C-2.2197245 5.99740483 -2.2197245 5.99740483 -4 9 C-3.67 6.36 -3.34 3.72 -3 1 C-2.01 0.67 -1.02 0.34 0 0 Z " fill="#47462C" transform="translate(146,205)"/>
<path d="M0 0 C0.66 0.33 1.32 0.66 2 1 C1.67 1.66 1.34 2.32 1 3 C1.33 3.99 1.66 4.98 2 6 C-1 6 -1 6 -3.1875 4 C-3.785625 3.34 -4.38375 2.68 -5 2 C-4.360625 1.855625 -3.72125 1.71125 -3.0625 1.5625 C-1.02454854 1.18992819 -1.02454854 1.18992819 0 0 Z " fill="#46482C" transform="translate(269,185)"/>
<path d="M0 0 C1.65 1.65 3.3 3.3 5 5 C4.01 5.33 3.02 5.66 2 6 C1.34 6.99 0.68 7.98 0 9 C0 6.03 0 3.06 0 0 Z " fill="#F1F1E0" transform="translate(274,332)"/>
<path d="M0 0 C0.66 0.33 1.32 0.66 2 1 C2 1.66 2 2.32 2 3 C2.78375 2.814375 3.5675 2.62875 4.375 2.4375 C7 2 7 2 9 3 C9 3.66 9 4.32 9 5 C1.25 4.25 1.25 4.25 -1 2 C-0.67 1.34 -0.34 0.68 0 0 Z " fill="#5B5B41" transform="translate(207,298)"/>
<path d="M0 0 C2.475 0.99 2.475 0.99 5 2 C4.01 3.32 3.02 4.64 2 6 C1.01 5.67 0.02 5.34 -1 5 C-0.67 3.35 -0.34 1.7 0 0 Z " fill="#F4EED4" transform="translate(275,268)"/>
<path d="M0 0 C2 2 2 2 2.125 5.125 C2.08375 6.07375 2.0425 7.0225 2 8 C0.68 7.34 -0.64 6.68 -2 6 C-1.49396008 3.83125748 -1.00016187 2.00032373 0 0 Z " fill="#2F3502" transform="translate(265,249)"/>
<path d="M0 0 C0.99 0.33 1.98 0.66 3 1 C3 2.65 3 4.3 3 6 C2.01 6.33 1.02 6.66 0 7 C0 4.69 0 2.38 0 0 Z " fill="#F5CC4E" transform="translate(178,215)"/>
<path d="M0 0 C1.32 0.33 2.64 0.66 4 1 C3.34 3.97 2.68 6.94 2 10 C1.67 10 1.34 10 1 10 C0.67 6.7 0.34 3.4 0 0 Z " fill="#38391F" transform="translate(153,204)"/>
<path d="M0 0 C1.98 0.99 1.98 0.99 4 2 C4.625 4.5625 4.625 4.5625 5 7 C5.66 7.33 6.32 7.66 7 8 C6.34 8.66 5.68 9.32 5 10 C3.35 6.7 1.7 3.4 0 0 Z " fill="#42442D" transform="translate(277,200)"/>
<path d="M0 0 C0.33 0.66 0.66 1.32 1 2 C-1.45454545 7.72727273 -1.45454545 7.72727273 -4 9 C-3.38461538 3.46153846 -3.38461538 3.46153846 -1.4375 1.125 C-0.963125 0.75375 -0.48875 0.3825 0 0 Z " fill="#55553C" transform="translate(148,197)"/>
<path d="M0 0 C0.99 0 1.98 0 3 0 C2.34 1.65 1.68 3.3 1 5 C-0.32 4.67 -1.64 4.34 -3 4 C-1.6875 2 -1.6875 2 0 0 Z " fill="#343105" transform="translate(262,178)"/>
<path d="M0 0 C0.66 0.33 1.32 0.66 2 1 C-0.0072908 4.0109362 -0.83884224 4.63016497 -4 6 C-4.33 5.01 -4.66 4.02 -5 3 C-2.625 1.4375 -2.625 1.4375 0 0 Z " fill="#4C4C30" transform="translate(200,169)"/>
<path d="M0 0 C2 1 2 1 3 3 C2.360625 3.103125 1.72125 3.20625 1.0625 3.3125 C0.381875 3.539375 -0.29875 3.76625 -1 4 C-1.33 4.99 -1.66 5.98 -2 7 C-2.66 5.68 -3.32 4.36 -4 3 C-2.68 2.01 -1.36 1.02 0 0 Z " fill="#454426" transform="translate(182,156)"/>
<path d="M0 0 C0.99 0.33 1.98 0.66 3 1 C3 1.66 3 2.32 3 3 C3.66 3.33 4.32 3.66 5 4 C4.01 4 3.02 4 2 4 C1.67 4.66 1.34 5.32 1 6 C0.34 5.34 -0.32 4.68 -1 4 C-0.625 1.875 -0.625 1.875 0 0 Z " fill="#2E3108" transform="translate(321,328)"/>
<path d="M0 0 C1.98 0.66 3.96 1.32 6 2 C6 2.99 6 3.98 6 5 C4.35 4.67 2.7 4.34 1 4 C0.67 2.68 0.34 1.36 0 0 Z " fill="#493F03" transform="translate(270,250)"/>
<path d="M0 0 C1.98 0.495 1.98 0.495 4 1 C3.34 2.65 2.68 4.3 2 6 C1.01 5.34 0.02 4.68 -1 4 C-0.67 2.68 -0.34 1.36 0 0 Z " fill="#653406" transform="translate(225,219)"/>
<path d="M0 0 C0.99 0.33 1.98 0.66 3 1 C3 1.66 3 2.32 3 3 C1 4.625 1 4.625 -1 6 C-1 5.34 -1 4.68 -1 4 C-1.66 3.67 -2.32 3.34 -3 3 C-2.01 2.01 -1.02 1.02 0 0 Z " fill="#403916" transform="translate(205,213)"/>
<path d="M0 0 C2.83328987 2.83328987 3.7191375 4.35446828 5 8 C4.01 8.33 3.02 8.66 2 9 C1.34 6.03 0.68 3.06 0 0 Z " fill="#E2E1D7" transform="translate(275,198)"/>
<path d="M0 0 C4.42857143 5.14285714 4.42857143 5.14285714 5 9 C2 8 2 8 0 5 C-0.125 2.3125 -0.125 2.3125 0 0 Z " fill="#484930" transform="translate(288,193)"/>
<path d="M0 0 C-0.99 1.485 -0.99 1.485 -2 3 C-5.125 3.1875 -5.125 3.1875 -8 3 C-6 0 -6 0 -4 -0.75 C-2 -1 -2 -1 0 0 Z " fill="#E1CA6B" transform="translate(199,188)"/>
<path d="M0 0 C1.3921875 0.0928125 1.3921875 0.0928125 2.8125 0.1875 C2.8125 0.8475 2.8125 1.5075 2.8125 2.1875 C-1.6425 2.6825 -1.6425 2.6825 -6.1875 3.1875 C-3.1875 0.1875 -3.1875 0.1875 0 0 Z " fill="#EDD258" transform="translate(205.1875,183.8125)"/>
<path d="M0 0 C0.66 0.33 1.32 0.66 2 1 C-0.36292656 3.52588702 -1.66462511 4.88820837 -5 6 C-5.66 5.34 -6.32 4.68 -7 4 C-1.7265625 0.77734375 -1.7265625 0.77734375 0 0 Z " fill="#4E5032" transform="translate(179,135)"/>
<path d="M0 0 C6.64615385 1.47692308 6.64615385 1.47692308 8.4375 4.125 C8.7159375 5.053125 8.7159375 5.053125 9 6 C5.06326356 4.68775452 2.77280706 3.08089673 0 0 Z " fill="#CDB94C" transform="translate(194,279)"/>
<path d="M0 0 C0.66 0 1.32 0 2 0 C0.84826645 2.46800047 -0.04783565 4.04783565 -2 6 C-3.32 4.68 -4.64 3.36 -6 2 C-4.02 2 -2.04 2 0 2 C0 1.34 0 0.68 0 0 Z " fill="#DDBE42" transform="translate(195,273)"/>
<path d="M0 0 C-0.33 0.99 -0.66 1.98 -1 3 C-5.75 2.25 -5.75 2.25 -8 0 C-2.25 -1.125 -2.25 -1.125 0 0 Z " fill="#F8F2CB" transform="translate(232,268)"/>
<path d="M0 0 C0.99 0 1.98 0 3 0 C2.95875 0.94875 2.9175 1.8975 2.875 2.875 C2.65026182 6.10244856 2.65026182 6.10244856 5 8 C4.01 8.495 4.01 8.495 3 9 C2.34 8.67 1.68 8.34 1 8 C0.40644386 5.35139573 0.25790731 2.70802678 0 0 Z " fill="#43442C" transform="translate(293,258)"/>
<path d="M0 0 C0.66 0 1.32 0 2 0 C2 2.64 2 5.28 2 8 C1.01 8.33 0.02 8.66 -1 9 C-0.67 6.03 -0.34 3.06 0 0 Z " fill="#E8692F" transform="translate(252,243)"/>
<path d="M0 0 C0.66 0.66 1.32 1.32 2 2 C1.625 4.125 1.625 4.125 1 6 C0.01 6 -0.98 6 -2 6 C-1.125 1.125 -1.125 1.125 0 0 Z " fill="#6A2E02" transform="translate(229,231)"/>
<path d="M0 0 C0.66 0.99 1.32 1.98 2 3 C2.99 3.66 3.98 4.32 5 5 C4.34 5.66 3.68 6.32 3 7 C3 6.34 3 5.68 3 5 C1.35 5.33 -0.3 5.66 -2 6 C-1.34 4.02 -0.68 2.04 0 0 Z " fill="#C57546" transform="translate(237,223)"/>
<path d="M0 0 C1.32 0.66 2.64 1.32 4 2 C4 2.99 4 3.98 4 5 C2.0625 4.6875 2.0625 4.6875 0 4 C-0.33 3.01 -0.66 2.02 -1 1 C-0.67 0.67 -0.34 0.34 0 0 Z " fill="#F6F5EA" transform="translate(266,190)"/>
</svg>
